%
M48
M72
T01C0.0240
T02C0.0400
T03C0.0512
T04C0.0787
T05C0.2500
%
T01
X19640Y11943
X18390Y13443
X13890Y12943
X13390Y12943
X11140Y13443
X9140Y14943
X10390Y15943
X11390Y15443
X8890Y16693
X9640Y18443
X10640Y18943
X12640Y20443
X8140Y19193
X7140Y18443
X6390Y16693
X6640Y14943
X3640Y16693
X4640Y18443
X3140Y18943
X2140Y18443
X2640Y20193
X4140Y20193
X5140Y20193
X17640Y20943
X24890Y13943
X28140Y16943
X28390Y18193
X28890Y18193
X29640Y16943
X30390Y16943
X31890Y16693
X32640Y17943
X32140Y20443
X31640Y22443
X17390Y9693
T02
X23742Y8994
X22742Y8994
X21742Y8994
X20742Y8994
X19742Y8994
X18742Y8994
X17742Y8994
X16742Y8994
X15742Y8994
X14742Y8994
X13742Y8994
X12742Y8994
X12742Y14963
X13742Y14963
X14742Y14963
X15742Y14963
X16742Y14963
X17742Y14963
X18742Y14963
X19742Y14963
X20742Y14963
X21742Y14963
X22742Y14963
X23742Y14963
T03
X27360Y19577
X12400Y19577
T04
X12400Y22727
T05
X20140Y24943
X37140Y24943
X2640Y24943
M30
