G75*
%MOIN*%
%OFA0B0*%
%FSLAX24Y24*%
%IPPOS*%
%LPD*%
%AMOC8*
5,1,8,0,0,1.08239X$1,22.5*
%
%ADD10C,0.0080*%
%ADD11C,0.0780*%
%ADD12C,0.0808*%
%ADD13C,0.0000*%
%ADD14C,0.0827*%
%ADD15R,0.0434X0.0355*%
%ADD16R,0.0473X0.0434*%
%ADD17R,0.0434X0.0473*%
%ADD18C,0.3040*%
D10*
X002109Y007817D02*
X024156Y007817D01*
X024158Y007630D01*
X024165Y007443D01*
X024176Y007257D01*
X024192Y007070D01*
X024213Y006885D01*
X024238Y006699D01*
X024267Y006515D01*
X024301Y006331D01*
X024340Y006148D01*
X024383Y005966D01*
X024430Y005785D01*
X024482Y005605D01*
X024538Y005427D01*
X024598Y005250D01*
X024663Y005075D01*
X024731Y004901D01*
X024805Y004729D01*
X024882Y004558D01*
X024963Y004390D01*
X025049Y004224D01*
X025138Y004060D01*
X025232Y003898D01*
X025329Y003738D01*
X025430Y003581D01*
X025535Y003426D01*
X025644Y003274D01*
X025757Y003125D01*
X025873Y002978D01*
X025992Y002835D01*
X026115Y002694D01*
X026242Y002556D01*
X026372Y002422D01*
X026505Y002290D01*
X026641Y002162D01*
X026780Y002037D01*
X026922Y001916D01*
X027067Y001798D01*
X027215Y001684D01*
X027366Y001573D01*
X027519Y001466D01*
X027675Y001363D01*
X027834Y001264D01*
X027995Y001169D01*
X028158Y001077D01*
X028323Y000990D01*
X028490Y000906D01*
X028659Y000827D01*
X028830Y000752D01*
X029003Y000680D01*
X029178Y000614D01*
X029354Y000551D01*
X029532Y000493D01*
X029711Y000439D01*
X029891Y000390D01*
X030073Y000345D01*
X030255Y000304D01*
X030439Y000268D01*
X030623Y000236D01*
X030808Y000209D01*
X030993Y000186D01*
X031179Y000168D01*
X031366Y000154D01*
X031553Y000145D01*
X031740Y000141D01*
X031926Y000141D01*
X032113Y000145D01*
X032300Y000154D01*
X032487Y000168D01*
X032673Y000186D01*
X032858Y000209D01*
X033043Y000236D01*
X033227Y000268D01*
X033411Y000304D01*
X033593Y000345D01*
X033775Y000390D01*
X033955Y000439D01*
X034134Y000493D01*
X034312Y000551D01*
X034488Y000614D01*
X034663Y000680D01*
X034836Y000752D01*
X035007Y000827D01*
X035176Y000906D01*
X035343Y000990D01*
X035508Y001077D01*
X035672Y001169D01*
X035832Y001264D01*
X035991Y001363D01*
X036147Y001466D01*
X036300Y001573D01*
X036451Y001684D01*
X036599Y001798D01*
X036744Y001916D01*
X036886Y002037D01*
X037025Y002162D01*
X037161Y002290D01*
X037294Y002422D01*
X037424Y002556D01*
X037551Y002694D01*
X037674Y002835D01*
X037793Y002978D01*
X037909Y003125D01*
X038022Y003274D01*
X038131Y003426D01*
X038236Y003581D01*
X038337Y003738D01*
X038434Y003898D01*
X038528Y004060D01*
X038617Y004224D01*
X038703Y004390D01*
X038784Y004558D01*
X038861Y004729D01*
X038935Y004901D01*
X039003Y005075D01*
X039068Y005250D01*
X039128Y005427D01*
X039184Y005605D01*
X039236Y005785D01*
X039283Y005966D01*
X039326Y006148D01*
X039365Y006331D01*
X039399Y006515D01*
X039428Y006699D01*
X039453Y006885D01*
X039474Y007070D01*
X039490Y007257D01*
X039501Y007443D01*
X039508Y007630D01*
X039510Y007817D01*
X039510Y025534D01*
X039511Y025534D02*
X039509Y025620D01*
X039504Y025706D01*
X039494Y025791D01*
X039481Y025876D01*
X039464Y025960D01*
X039444Y026044D01*
X039420Y026126D01*
X039392Y026207D01*
X039361Y026288D01*
X039327Y026366D01*
X039289Y026443D01*
X039247Y026519D01*
X039203Y026592D01*
X039155Y026663D01*
X039104Y026733D01*
X039050Y026800D01*
X038994Y026864D01*
X038934Y026926D01*
X038872Y026986D01*
X038808Y027042D01*
X038741Y027096D01*
X038671Y027147D01*
X038600Y027195D01*
X038527Y027239D01*
X038451Y027281D01*
X038374Y027319D01*
X038296Y027353D01*
X038215Y027384D01*
X038134Y027412D01*
X038052Y027436D01*
X037968Y027456D01*
X037884Y027473D01*
X037799Y027486D01*
X037714Y027496D01*
X037628Y027501D01*
X037542Y027503D01*
X037542Y027502D02*
X002109Y027502D01*
X002109Y027503D02*
X002023Y027501D01*
X001937Y027496D01*
X001852Y027486D01*
X001767Y027473D01*
X001683Y027456D01*
X001599Y027436D01*
X001517Y027412D01*
X001436Y027384D01*
X001355Y027353D01*
X001277Y027319D01*
X001200Y027281D01*
X001125Y027239D01*
X001051Y027195D01*
X000980Y027147D01*
X000910Y027096D01*
X000843Y027042D01*
X000779Y026986D01*
X000717Y026926D01*
X000657Y026864D01*
X000601Y026800D01*
X000547Y026733D01*
X000496Y026663D01*
X000448Y026592D01*
X000404Y026519D01*
X000362Y026443D01*
X000324Y026366D01*
X000290Y026288D01*
X000259Y026207D01*
X000231Y026126D01*
X000207Y026044D01*
X000187Y025960D01*
X000170Y025876D01*
X000157Y025791D01*
X000147Y025706D01*
X000142Y025620D01*
X000140Y025534D01*
X000140Y009786D01*
X000142Y009700D01*
X000147Y009614D01*
X000157Y009529D01*
X000170Y009444D01*
X000187Y009360D01*
X000207Y009276D01*
X000231Y009194D01*
X000259Y009113D01*
X000290Y009032D01*
X000324Y008954D01*
X000362Y008877D01*
X000404Y008802D01*
X000448Y008728D01*
X000496Y008657D01*
X000547Y008587D01*
X000601Y008520D01*
X000657Y008456D01*
X000717Y008394D01*
X000779Y008334D01*
X000843Y008278D01*
X000910Y008224D01*
X000980Y008173D01*
X001051Y008125D01*
X001124Y008081D01*
X001200Y008039D01*
X001277Y008001D01*
X001355Y007967D01*
X001436Y007936D01*
X001517Y007908D01*
X001599Y007884D01*
X001683Y007864D01*
X001767Y007847D01*
X001852Y007834D01*
X001937Y007824D01*
X002023Y007819D01*
X002109Y007817D01*
D11*
X012742Y008994D03*
X013742Y008994D03*
X014742Y008994D03*
X015742Y008994D03*
X016742Y008994D03*
X017742Y008994D03*
X018742Y008994D03*
X019742Y008994D03*
X020742Y008994D03*
X021742Y008994D03*
X022742Y008994D03*
X023742Y008994D03*
X023742Y014963D03*
X022742Y014963D03*
X021742Y014963D03*
X020742Y014963D03*
X019742Y014963D03*
X018742Y014963D03*
X017742Y014963D03*
X016742Y014963D03*
X015742Y014963D03*
X014742Y014963D03*
X013742Y014963D03*
X012742Y014963D03*
D12*
X012400Y019577D03*
X027360Y019577D03*
D13*
X012006Y022727D02*
X012008Y022766D01*
X012014Y022805D01*
X012024Y022843D01*
X012037Y022880D01*
X012054Y022915D01*
X012074Y022949D01*
X012098Y022980D01*
X012125Y023009D01*
X012154Y023035D01*
X012186Y023058D01*
X012220Y023078D01*
X012256Y023094D01*
X012293Y023106D01*
X012332Y023115D01*
X012371Y023120D01*
X012410Y023121D01*
X012449Y023118D01*
X012488Y023111D01*
X012525Y023100D01*
X012562Y023086D01*
X012597Y023068D01*
X012630Y023047D01*
X012661Y023022D01*
X012689Y022995D01*
X012714Y022965D01*
X012736Y022932D01*
X012755Y022898D01*
X012770Y022862D01*
X012782Y022824D01*
X012790Y022786D01*
X012794Y022747D01*
X012794Y022707D01*
X012790Y022668D01*
X012782Y022630D01*
X012770Y022592D01*
X012755Y022556D01*
X012736Y022522D01*
X012714Y022489D01*
X012689Y022459D01*
X012661Y022432D01*
X012630Y022407D01*
X012597Y022386D01*
X012562Y022368D01*
X012525Y022354D01*
X012488Y022343D01*
X012449Y022336D01*
X012410Y022333D01*
X012371Y022334D01*
X012332Y022339D01*
X012293Y022348D01*
X012256Y022360D01*
X012220Y022376D01*
X012186Y022396D01*
X012154Y022419D01*
X012125Y022445D01*
X012098Y022474D01*
X012074Y022505D01*
X012054Y022539D01*
X012037Y022574D01*
X012024Y022611D01*
X012014Y022649D01*
X012008Y022688D01*
X012006Y022727D01*
D14*
X012400Y022727D03*
D15*
X031368Y009065D03*
X031368Y008199D03*
X032786Y008199D03*
X032786Y009065D03*
D16*
X032805Y018443D03*
X033475Y018443D03*
X030975Y018443D03*
X030305Y018443D03*
X030305Y020443D03*
X030975Y020443D03*
X032805Y020443D03*
X033475Y020443D03*
X033475Y022443D03*
X032805Y022443D03*
X030975Y022443D03*
X030305Y022443D03*
X010475Y014943D03*
X009805Y014943D03*
X007975Y014943D03*
X007305Y014943D03*
X005475Y014943D03*
X004805Y014943D03*
X002975Y014943D03*
X002305Y014943D03*
D17*
X002140Y019609D03*
X002140Y020278D03*
X002140Y021609D03*
X002140Y022278D03*
X004640Y022278D03*
X004640Y021609D03*
X004640Y020278D03*
X004640Y019609D03*
X007140Y019609D03*
X007140Y020278D03*
X007140Y021609D03*
X007140Y022278D03*
X009640Y022278D03*
X009640Y021609D03*
X009640Y020278D03*
X009640Y019609D03*
D18*
X002640Y024943D03*
X020140Y024943D03*
X037140Y024943D03*
M02*
