G75*
%MOIN*%
%OFA0B0*%
%FSLAX24Y24*%
%IPPOS*%
%LPD*%
%AMOC8*
5,1,8,0,0,1.08239X$1,22.5*
%
%ADD10C,0.0080*%
%ADD11C,0.0040*%
%ADD12C,0.0050*%
%ADD13C,0.0020*%
%ADD14R,0.3000X0.2500*%
%ADD15C,0.0000*%
%ADD16C,0.0059*%
%ADD17C,0.0010*%
%ADD18R,0.0180X0.0300*%
%ADD19R,0.0300X0.0180*%
D10*
X002109Y007817D02*
X024156Y007817D01*
X023992Y008494D02*
X023492Y008494D01*
X023242Y008744D01*
X022992Y008494D01*
X022492Y008494D01*
X022242Y008744D01*
X021992Y008494D01*
X021492Y008494D01*
X021242Y008744D01*
X020992Y008494D01*
X020492Y008494D01*
X020242Y008744D01*
X019992Y008494D01*
X019492Y008494D01*
X019242Y008744D01*
X018992Y008494D01*
X018492Y008494D01*
X018242Y008744D01*
X017992Y008494D01*
X017492Y008494D01*
X017242Y008744D01*
X016992Y008494D01*
X016492Y008494D01*
X016242Y008744D01*
X015992Y008494D01*
X015492Y008494D01*
X015242Y008744D01*
X014992Y008494D01*
X014492Y008494D01*
X014242Y008744D01*
X013992Y008494D01*
X013492Y008494D01*
X013242Y008744D01*
X012992Y008494D01*
X012492Y008494D01*
X012242Y008744D01*
X012242Y009244D01*
X012492Y009494D01*
X012992Y009494D01*
X013242Y009244D01*
X013492Y009494D01*
X013992Y009494D01*
X014242Y009244D01*
X014492Y009494D01*
X014992Y009494D01*
X015242Y009244D01*
X015492Y009494D01*
X015992Y009494D01*
X016242Y009244D01*
X016492Y009494D01*
X016992Y009494D01*
X017242Y009244D01*
X017492Y009494D01*
X017992Y009494D01*
X018242Y009244D01*
X018492Y009494D01*
X018992Y009494D01*
X019242Y009244D01*
X019492Y009494D01*
X019992Y009494D01*
X020242Y009244D01*
X020492Y009494D01*
X020992Y009494D01*
X021242Y009244D01*
X021492Y009494D01*
X021992Y009494D01*
X022242Y009244D01*
X022492Y009494D01*
X022992Y009494D01*
X023242Y009244D01*
X023492Y009494D01*
X023992Y009494D01*
X024242Y009244D01*
X024242Y008744D01*
X023992Y008494D01*
X031274Y008459D02*
X031274Y008817D01*
X031668Y009081D02*
X032486Y009081D01*
X032888Y008817D02*
X032888Y008459D01*
X032486Y008175D02*
X031668Y008175D01*
X024156Y007817D02*
X024158Y007630D01*
X024165Y007443D01*
X024176Y007257D01*
X024192Y007070D01*
X024213Y006885D01*
X024238Y006699D01*
X024267Y006515D01*
X024301Y006331D01*
X024340Y006148D01*
X024383Y005966D01*
X024430Y005785D01*
X024482Y005605D01*
X024538Y005427D01*
X024598Y005250D01*
X024663Y005075D01*
X024731Y004901D01*
X024805Y004729D01*
X024882Y004558D01*
X024963Y004390D01*
X025049Y004224D01*
X025138Y004060D01*
X025232Y003898D01*
X025329Y003738D01*
X025430Y003581D01*
X025535Y003426D01*
X025644Y003274D01*
X025757Y003125D01*
X025873Y002978D01*
X025992Y002835D01*
X026115Y002694D01*
X026242Y002556D01*
X026372Y002422D01*
X026505Y002290D01*
X026641Y002162D01*
X026780Y002037D01*
X026922Y001916D01*
X027067Y001798D01*
X027215Y001684D01*
X027366Y001573D01*
X027519Y001466D01*
X027675Y001363D01*
X027834Y001264D01*
X027995Y001169D01*
X028158Y001077D01*
X028323Y000990D01*
X028490Y000906D01*
X028659Y000827D01*
X028830Y000752D01*
X029003Y000680D01*
X029178Y000614D01*
X029354Y000551D01*
X029532Y000493D01*
X029711Y000439D01*
X029891Y000390D01*
X030073Y000345D01*
X030255Y000304D01*
X030439Y000268D01*
X030623Y000236D01*
X030808Y000209D01*
X030993Y000186D01*
X031179Y000168D01*
X031366Y000154D01*
X031553Y000145D01*
X031740Y000141D01*
X031926Y000141D01*
X032113Y000145D01*
X032300Y000154D01*
X032487Y000168D01*
X032673Y000186D01*
X032858Y000209D01*
X033043Y000236D01*
X033227Y000268D01*
X033411Y000304D01*
X033593Y000345D01*
X033775Y000390D01*
X033955Y000439D01*
X034134Y000493D01*
X034312Y000551D01*
X034488Y000614D01*
X034663Y000680D01*
X034836Y000752D01*
X035007Y000827D01*
X035176Y000906D01*
X035343Y000990D01*
X035508Y001077D01*
X035672Y001169D01*
X035832Y001264D01*
X035991Y001363D01*
X036147Y001466D01*
X036300Y001573D01*
X036451Y001684D01*
X036599Y001798D01*
X036744Y001916D01*
X036886Y002037D01*
X037025Y002162D01*
X037161Y002290D01*
X037294Y002422D01*
X037424Y002556D01*
X037551Y002694D01*
X037674Y002835D01*
X037793Y002978D01*
X037909Y003125D01*
X038022Y003274D01*
X038131Y003426D01*
X038236Y003581D01*
X038337Y003738D01*
X038434Y003898D01*
X038528Y004060D01*
X038617Y004224D01*
X038703Y004390D01*
X038784Y004558D01*
X038861Y004729D01*
X038935Y004901D01*
X039003Y005075D01*
X039068Y005250D01*
X039128Y005427D01*
X039184Y005605D01*
X039236Y005785D01*
X039283Y005966D01*
X039326Y006148D01*
X039365Y006331D01*
X039399Y006515D01*
X039428Y006699D01*
X039453Y006885D01*
X039474Y007070D01*
X039490Y007257D01*
X039501Y007443D01*
X039508Y007630D01*
X039510Y007817D01*
X039510Y025534D01*
X039511Y025534D02*
X039509Y025620D01*
X039504Y025706D01*
X039494Y025791D01*
X039481Y025876D01*
X039464Y025960D01*
X039444Y026044D01*
X039420Y026126D01*
X039392Y026207D01*
X039361Y026288D01*
X039327Y026366D01*
X039289Y026443D01*
X039247Y026519D01*
X039203Y026592D01*
X039155Y026663D01*
X039104Y026733D01*
X039050Y026800D01*
X038994Y026864D01*
X038934Y026926D01*
X038872Y026986D01*
X038808Y027042D01*
X038741Y027096D01*
X038671Y027147D01*
X038600Y027195D01*
X038527Y027239D01*
X038451Y027281D01*
X038374Y027319D01*
X038296Y027353D01*
X038215Y027384D01*
X038134Y027412D01*
X038052Y027436D01*
X037968Y027456D01*
X037884Y027473D01*
X037799Y027486D01*
X037714Y027496D01*
X037628Y027501D01*
X037542Y027503D01*
X037542Y027502D02*
X002109Y027502D01*
X002109Y027503D02*
X002023Y027501D01*
X001937Y027496D01*
X001852Y027486D01*
X001767Y027473D01*
X001683Y027456D01*
X001599Y027436D01*
X001517Y027412D01*
X001436Y027384D01*
X001355Y027353D01*
X001277Y027319D01*
X001200Y027281D01*
X001125Y027239D01*
X001051Y027195D01*
X000980Y027147D01*
X000910Y027096D01*
X000843Y027042D01*
X000779Y026986D01*
X000717Y026926D01*
X000657Y026864D01*
X000601Y026800D01*
X000547Y026733D01*
X000496Y026663D01*
X000448Y026592D01*
X000404Y026519D01*
X000362Y026443D01*
X000324Y026366D01*
X000290Y026288D01*
X000259Y026207D01*
X000231Y026126D01*
X000207Y026044D01*
X000187Y025960D01*
X000170Y025876D01*
X000157Y025791D01*
X000147Y025706D01*
X000142Y025620D01*
X000140Y025534D01*
X000140Y009786D01*
X000142Y009700D01*
X000147Y009614D01*
X000157Y009529D01*
X000170Y009444D01*
X000187Y009360D01*
X000207Y009276D01*
X000231Y009194D01*
X000259Y009113D01*
X000290Y009032D01*
X000324Y008954D01*
X000362Y008877D01*
X000404Y008802D01*
X000448Y008728D01*
X000496Y008657D01*
X000547Y008587D01*
X000601Y008520D01*
X000657Y008456D01*
X000717Y008394D01*
X000779Y008334D01*
X000843Y008278D01*
X000910Y008224D01*
X000980Y008173D01*
X001051Y008125D01*
X001124Y008081D01*
X001200Y008039D01*
X001277Y008001D01*
X001355Y007967D01*
X001436Y007936D01*
X001517Y007908D01*
X001599Y007884D01*
X001683Y007864D01*
X001767Y007847D01*
X001852Y007834D01*
X001937Y007824D01*
X002023Y007819D01*
X002109Y007817D01*
X012242Y014713D02*
X012492Y014463D01*
X012992Y014463D01*
X013242Y014713D01*
X013492Y014463D01*
X013992Y014463D01*
X014242Y014713D01*
X014492Y014463D01*
X014992Y014463D01*
X015242Y014713D01*
X015492Y014463D01*
X015992Y014463D01*
X016242Y014713D01*
X016492Y014463D01*
X016992Y014463D01*
X017242Y014713D01*
X017492Y014463D01*
X017992Y014463D01*
X018242Y014713D01*
X018492Y014463D01*
X018992Y014463D01*
X019242Y014713D01*
X019492Y014463D01*
X019992Y014463D01*
X020242Y014713D01*
X020492Y014463D01*
X020992Y014463D01*
X021242Y014713D01*
X021492Y014463D01*
X021992Y014463D01*
X022242Y014713D01*
X022492Y014463D01*
X022992Y014463D01*
X023242Y014713D01*
X023492Y014463D01*
X023992Y014463D01*
X024242Y014713D01*
X024242Y015213D01*
X023992Y015463D01*
X023492Y015463D01*
X023242Y015213D01*
X022992Y015463D01*
X022492Y015463D01*
X022242Y015213D01*
X021992Y015463D01*
X021492Y015463D01*
X021242Y015213D01*
X020992Y015463D01*
X020492Y015463D01*
X020242Y015213D01*
X019992Y015463D01*
X019492Y015463D01*
X019242Y015213D01*
X018992Y015463D01*
X018492Y015463D01*
X018242Y015213D01*
X017992Y015463D01*
X017492Y015463D01*
X017242Y015213D01*
X016992Y015463D01*
X016492Y015463D01*
X016242Y015213D01*
X015992Y015463D01*
X015492Y015463D01*
X015242Y015213D01*
X014992Y015463D01*
X014492Y015463D01*
X014242Y015213D01*
X013992Y015463D01*
X013492Y015463D01*
X013242Y015213D01*
X012992Y015463D01*
X012492Y015463D01*
X012242Y015213D01*
X012242Y014713D01*
X010737Y019387D02*
X010737Y020000D01*
X010430Y019694D02*
X011044Y019694D01*
X028680Y019694D02*
X029294Y019694D01*
D11*
X030653Y006924D02*
X030346Y006693D01*
X030653Y006463D01*
X031266Y006463D02*
X031573Y006463D01*
X031420Y006463D02*
X031420Y006924D01*
X031266Y006770D01*
X031727Y006693D02*
X031804Y006617D01*
X031957Y006617D01*
X032034Y006540D01*
X031957Y006463D01*
X031727Y006463D01*
X031727Y006693D02*
X031804Y006770D01*
X032034Y006770D01*
X032648Y006770D02*
X032648Y006693D01*
X032724Y006693D01*
X032724Y006770D01*
X032648Y006770D01*
X032648Y006540D02*
X032648Y006463D01*
X032724Y006463D01*
X032724Y006540D01*
X032648Y006540D01*
X033338Y006540D02*
X033415Y006463D01*
X033568Y006463D01*
X033645Y006540D01*
X033799Y006463D02*
X033799Y006924D01*
X033875Y006770D02*
X034029Y006770D01*
X034105Y006693D01*
X034105Y006463D01*
X034259Y006540D02*
X034336Y006617D01*
X034566Y006617D01*
X034566Y006693D02*
X034566Y006463D01*
X034336Y006463D01*
X034259Y006540D01*
X034336Y006770D02*
X034489Y006770D01*
X034566Y006693D01*
X034719Y006770D02*
X034950Y006770D01*
X035026Y006693D01*
X035026Y006463D01*
X035180Y006540D02*
X035256Y006463D01*
X035487Y006463D01*
X035487Y006386D02*
X035487Y006770D01*
X035256Y006770D01*
X035180Y006693D01*
X035180Y006540D01*
X035333Y006310D02*
X035410Y006310D01*
X035487Y006386D01*
X035640Y006540D02*
X035640Y006693D01*
X035717Y006770D01*
X035870Y006770D01*
X035947Y006693D01*
X035947Y006617D01*
X035640Y006617D01*
X035640Y006540D02*
X035717Y006463D01*
X035870Y006463D01*
X036561Y006540D02*
X036638Y006463D01*
X036791Y006463D01*
X036868Y006540D01*
X037021Y006540D02*
X037021Y006693D01*
X037098Y006770D01*
X037252Y006770D01*
X037328Y006693D01*
X037328Y006540D01*
X037252Y006463D01*
X037098Y006463D01*
X037021Y006540D01*
X036868Y006847D02*
X036791Y006924D01*
X036638Y006924D01*
X036561Y006847D01*
X036561Y006540D01*
X037482Y006463D02*
X037635Y006463D01*
X037558Y006463D02*
X037558Y006924D01*
X037482Y006924D01*
X037789Y006693D02*
X037789Y006540D01*
X037865Y006463D01*
X038019Y006463D01*
X038096Y006540D01*
X038096Y006693D01*
X038019Y006770D01*
X037865Y006770D01*
X037789Y006693D01*
X038249Y006617D02*
X038402Y006770D01*
X038479Y006770D01*
X038249Y006770D02*
X038249Y006463D01*
X037789Y005424D02*
X037789Y004963D01*
X037558Y004963D01*
X037482Y005040D01*
X037482Y005193D01*
X037558Y005270D01*
X037789Y005270D01*
X037942Y005193D02*
X038019Y005270D01*
X038172Y005270D01*
X038249Y005193D01*
X038249Y005117D01*
X037942Y005117D01*
X037942Y005193D02*
X037942Y005040D01*
X038019Y004963D01*
X038172Y004963D01*
X037328Y005040D02*
X037328Y005193D01*
X037252Y005270D01*
X037098Y005270D01*
X037021Y005193D01*
X037021Y005040D01*
X037098Y004963D01*
X037252Y004963D01*
X037328Y005040D01*
X036868Y004963D02*
X036868Y005424D01*
X036714Y005270D01*
X036561Y005424D01*
X036561Y004963D01*
X035947Y005117D02*
X035640Y005117D01*
X035640Y005193D02*
X035717Y005270D01*
X035870Y005270D01*
X035947Y005193D01*
X035947Y005117D01*
X035870Y004963D02*
X035717Y004963D01*
X035640Y005040D01*
X035640Y005193D01*
X035487Y005270D02*
X035256Y005270D01*
X035180Y005193D01*
X035180Y005040D01*
X035256Y004963D01*
X035487Y004963D01*
X035487Y004886D02*
X035487Y005270D01*
X035026Y005193D02*
X035026Y004963D01*
X035026Y005193D02*
X034950Y005270D01*
X034719Y005270D01*
X034719Y004963D01*
X034566Y004963D02*
X034336Y004963D01*
X034259Y005040D01*
X034336Y005117D01*
X034566Y005117D01*
X034566Y005193D02*
X034566Y004963D01*
X034566Y005193D02*
X034489Y005270D01*
X034336Y005270D01*
X034105Y005193D02*
X034105Y004963D01*
X034105Y005193D02*
X034029Y005270D01*
X033875Y005270D01*
X033799Y005193D01*
X033645Y005040D02*
X033568Y004963D01*
X033415Y004963D01*
X033338Y005040D01*
X033338Y005347D01*
X033415Y005424D01*
X033568Y005424D01*
X033645Y005347D01*
X033799Y005424D02*
X033799Y004963D01*
X032724Y004963D02*
X032648Y004963D01*
X032648Y005040D01*
X032724Y005040D01*
X032724Y004963D01*
X032724Y005193D02*
X032648Y005193D01*
X032648Y005270D01*
X032724Y005270D01*
X032724Y005193D01*
X032034Y005270D02*
X031804Y005270D01*
X031727Y005193D01*
X031804Y005117D01*
X031957Y005117D01*
X032034Y005040D01*
X031957Y004963D01*
X031727Y004963D01*
X031573Y004963D02*
X031266Y004963D01*
X031420Y004963D02*
X031420Y005424D01*
X031266Y005270D01*
X030653Y005193D02*
X030346Y004963D01*
X030653Y005193D02*
X030346Y005424D01*
X029732Y005270D02*
X029502Y005270D01*
X029425Y005193D01*
X029502Y005117D01*
X029655Y005117D01*
X029732Y005040D01*
X029655Y004963D01*
X029425Y004963D01*
X029271Y005040D02*
X029195Y005117D01*
X029041Y005117D01*
X028964Y005193D01*
X029041Y005270D01*
X029271Y005270D01*
X029271Y005040D02*
X029195Y004963D01*
X028964Y004963D01*
X028811Y005117D02*
X028504Y005117D01*
X028504Y005193D02*
X028581Y005270D01*
X028734Y005270D01*
X028811Y005193D01*
X028811Y005117D01*
X028734Y004963D02*
X028581Y004963D01*
X028504Y005040D01*
X028504Y005193D01*
X028351Y005270D02*
X028274Y005270D01*
X028120Y005117D01*
X028120Y005270D02*
X028120Y004963D01*
X027890Y005117D02*
X027660Y005117D01*
X027660Y004963D02*
X027660Y005424D01*
X027890Y005424D01*
X027967Y005347D01*
X027967Y005193D01*
X027890Y005117D01*
X027660Y006463D02*
X027660Y006924D01*
X027890Y006924D01*
X027967Y006847D01*
X027967Y006693D01*
X027890Y006617D01*
X027660Y006617D01*
X028120Y006617D02*
X028274Y006770D01*
X028351Y006770D01*
X028504Y006693D02*
X028581Y006770D01*
X028734Y006770D01*
X028811Y006693D01*
X028811Y006617D01*
X028504Y006617D01*
X028504Y006693D02*
X028504Y006540D01*
X028581Y006463D01*
X028734Y006463D01*
X028964Y006463D02*
X029195Y006463D01*
X029271Y006540D01*
X029195Y006617D01*
X029041Y006617D01*
X028964Y006693D01*
X029041Y006770D01*
X029271Y006770D01*
X029425Y006693D02*
X029502Y006617D01*
X029655Y006617D01*
X029732Y006540D01*
X029655Y006463D01*
X029425Y006463D01*
X029425Y006693D02*
X029502Y006770D01*
X029732Y006770D01*
X028120Y006770D02*
X028120Y006463D01*
X033338Y006540D02*
X033338Y006847D01*
X033415Y006924D01*
X033568Y006924D01*
X033645Y006847D01*
X033799Y006693D02*
X033875Y006770D01*
X034719Y006770D02*
X034719Y006463D01*
X035487Y004886D02*
X035410Y004810D01*
X035333Y004810D01*
X010291Y011290D02*
X010214Y011213D01*
X009984Y011213D01*
X009831Y011213D02*
X009677Y011213D01*
X009754Y011213D02*
X009754Y011520D01*
X009677Y011520D01*
X009524Y011597D02*
X009217Y011290D01*
X009217Y011213D01*
X009524Y011213D01*
X009524Y011597D02*
X009524Y011674D01*
X009217Y011674D01*
X008987Y011520D02*
X009063Y011443D01*
X009063Y011367D01*
X008756Y011367D01*
X008756Y011443D02*
X008833Y011520D01*
X008987Y011520D01*
X008756Y011443D02*
X008756Y011290D01*
X008833Y011213D01*
X008987Y011213D01*
X008603Y011213D02*
X008373Y011367D01*
X008603Y011520D01*
X008373Y011674D02*
X008373Y011213D01*
X008219Y011213D02*
X008219Y011520D01*
X007912Y011520D02*
X007912Y011290D01*
X007989Y011213D01*
X008219Y011213D01*
X007759Y011290D02*
X007759Y011597D01*
X007682Y011674D01*
X007452Y011674D01*
X007452Y011213D01*
X007682Y011213D01*
X007759Y011290D01*
X007299Y011367D02*
X006992Y011367D01*
X006992Y011443D02*
X007068Y011520D01*
X007222Y011520D01*
X007299Y011443D01*
X007299Y011367D01*
X007222Y011213D02*
X007068Y011213D01*
X006992Y011290D01*
X006992Y011443D01*
X006838Y011443D02*
X006838Y011213D01*
X006838Y011443D02*
X006761Y011520D01*
X006608Y011520D01*
X006531Y011443D01*
X006531Y011213D02*
X006531Y011674D01*
X006378Y011674D02*
X006071Y011674D01*
X006224Y011674D02*
X006224Y011213D01*
X005917Y011290D02*
X005841Y011213D01*
X005687Y011213D01*
X005610Y011290D01*
X005610Y011597D01*
X005687Y011674D01*
X005841Y011674D01*
X005917Y011597D01*
X005917Y011443D01*
X005841Y011367D01*
X005841Y011520D01*
X005687Y011520D01*
X005687Y011367D01*
X005841Y011367D01*
X004997Y011520D02*
X004997Y011136D01*
X004920Y011060D01*
X004843Y011060D01*
X004766Y011213D02*
X004997Y011213D01*
X004766Y011213D02*
X004690Y011290D01*
X004690Y011520D01*
X004536Y011443D02*
X004459Y011520D01*
X004229Y011520D01*
X004229Y011674D02*
X004229Y011213D01*
X004459Y011213D01*
X004536Y011290D01*
X004536Y011443D01*
X003615Y011443D02*
X003615Y011213D01*
X003615Y011443D02*
X003539Y011520D01*
X003308Y011520D01*
X003308Y011213D01*
X003155Y011213D02*
X002925Y011213D01*
X002848Y011290D01*
X002848Y011443D01*
X002925Y011520D01*
X003155Y011520D01*
X003155Y011136D01*
X003078Y011060D01*
X003002Y011060D01*
X003078Y010924D02*
X003232Y010924D01*
X003308Y010847D01*
X003308Y010770D01*
X003232Y010693D01*
X003308Y010617D01*
X003308Y010540D01*
X003232Y010463D01*
X003078Y010463D01*
X003002Y010540D01*
X003155Y010693D02*
X003232Y010693D01*
X003002Y010847D02*
X003078Y010924D01*
X002848Y010770D02*
X002695Y010463D01*
X002541Y010770D01*
X002388Y010463D02*
X002081Y010463D01*
X002081Y010924D01*
X001927Y010847D02*
X001927Y010693D01*
X001851Y010617D01*
X001620Y010617D01*
X001620Y010463D02*
X001620Y010924D01*
X001851Y010924D01*
X001927Y010847D01*
X001851Y011213D02*
X001697Y011213D01*
X001620Y011290D01*
X001620Y011443D01*
X001697Y011520D01*
X001851Y011520D01*
X001927Y011443D01*
X001927Y011367D01*
X001620Y011367D01*
X001467Y011290D02*
X001467Y011597D01*
X001390Y011674D01*
X001160Y011674D01*
X001160Y011213D01*
X001390Y011213D01*
X001467Y011290D01*
X001390Y010924D02*
X001237Y010924D01*
X001160Y010847D01*
X001160Y010540D01*
X001237Y010463D01*
X001390Y010463D01*
X001467Y010540D01*
X001467Y010693D01*
X001313Y010693D01*
X001467Y010847D02*
X001390Y010924D01*
X002081Y011213D02*
X002311Y011213D01*
X002388Y011290D01*
X002311Y011367D01*
X002158Y011367D01*
X002081Y011443D01*
X002158Y011520D01*
X002388Y011520D01*
X002541Y011520D02*
X002618Y011520D01*
X002618Y011213D01*
X002541Y011213D02*
X002695Y011213D01*
X002618Y011674D02*
X002618Y011750D01*
X009754Y011750D02*
X009754Y011674D01*
X009984Y011520D02*
X010214Y011520D01*
X010291Y011443D01*
X010291Y011290D01*
X009984Y011060D02*
X009984Y011520D01*
D12*
X011504Y011625D02*
X012013Y011625D01*
X012115Y011523D01*
X012115Y011320D01*
X012013Y011218D01*
X011504Y011218D01*
X011606Y011826D02*
X011708Y011826D01*
X011810Y011928D01*
X011810Y012131D01*
X011911Y012233D01*
X012013Y012233D01*
X012115Y012131D01*
X012115Y011928D01*
X012013Y011826D01*
X011606Y011826D02*
X011504Y011928D01*
X011504Y012131D01*
X011606Y012233D01*
X011504Y012434D02*
X011504Y012739D01*
X011606Y012841D01*
X011708Y012841D01*
X011810Y012739D01*
X011810Y012434D01*
X012115Y012434D02*
X011504Y012434D01*
X012115Y012434D02*
X012115Y012739D01*
X012013Y012841D01*
X011911Y012841D01*
X011810Y012739D01*
X012387Y010190D02*
X012538Y010190D01*
X012463Y010190D02*
X012463Y009814D01*
X012387Y009739D01*
X012312Y009739D01*
X012237Y009814D01*
X012698Y009739D02*
X012698Y010190D01*
X012923Y010190D01*
X012998Y010115D01*
X012998Y009965D01*
X012923Y009889D01*
X012698Y009889D01*
X013158Y009739D02*
X013458Y009739D01*
X013308Y009739D02*
X013308Y010190D01*
X013158Y010040D01*
X013158Y015708D02*
X013458Y016008D01*
X013458Y016083D01*
X013383Y016158D01*
X013233Y016158D01*
X013158Y016083D01*
X012998Y016083D02*
X012998Y015933D01*
X012923Y015858D01*
X012698Y015858D01*
X012698Y015708D02*
X012698Y016158D01*
X012923Y016158D01*
X012998Y016083D01*
X012538Y016158D02*
X012387Y016158D01*
X012463Y016158D02*
X012463Y015783D01*
X012387Y015708D01*
X012312Y015708D01*
X012237Y015783D01*
X011416Y016034D02*
X011416Y023120D01*
X028345Y023120D01*
X028345Y016034D01*
X011416Y016034D01*
X013158Y015708D02*
X013458Y015708D01*
D13*
X012952Y014173D02*
X012879Y014173D01*
X012842Y014137D01*
X012842Y013990D01*
X012879Y013953D01*
X012952Y013953D01*
X012989Y013990D01*
X012989Y014137D02*
X012952Y014173D01*
X012768Y014137D02*
X012731Y014173D01*
X012658Y014173D01*
X012621Y014137D01*
X012621Y013990D01*
X012658Y013953D01*
X012731Y013953D01*
X012768Y013990D01*
X012547Y014027D02*
X012547Y014173D01*
X012547Y014027D02*
X012473Y013953D01*
X012400Y014027D01*
X012400Y014173D01*
X011952Y009173D02*
X011842Y009173D01*
X011842Y008953D01*
X011952Y008953D01*
X011989Y008990D01*
X011989Y009137D01*
X011952Y009173D01*
X011768Y009173D02*
X011768Y008953D01*
X011621Y009173D01*
X011621Y008953D01*
X011547Y008990D02*
X011547Y009063D01*
X011473Y009063D01*
X011400Y008990D02*
X011437Y008953D01*
X011510Y008953D01*
X011547Y008990D01*
X011547Y009137D02*
X011510Y009173D01*
X011437Y009173D01*
X011400Y009137D01*
X011400Y008990D01*
D14*
X013890Y012193D03*
D15*
X012006Y022727D02*
X012008Y022766D01*
X012014Y022805D01*
X012024Y022843D01*
X012037Y022880D01*
X012054Y022915D01*
X012074Y022949D01*
X012098Y022980D01*
X012125Y023009D01*
X012154Y023035D01*
X012186Y023058D01*
X012220Y023078D01*
X012256Y023094D01*
X012293Y023106D01*
X012332Y023115D01*
X012371Y023120D01*
X012410Y023121D01*
X012449Y023118D01*
X012488Y023111D01*
X012525Y023100D01*
X012562Y023086D01*
X012597Y023068D01*
X012630Y023047D01*
X012661Y023022D01*
X012689Y022995D01*
X012714Y022965D01*
X012736Y022932D01*
X012755Y022898D01*
X012770Y022862D01*
X012782Y022824D01*
X012790Y022786D01*
X012794Y022747D01*
X012794Y022707D01*
X012790Y022668D01*
X012782Y022630D01*
X012770Y022592D01*
X012755Y022556D01*
X012736Y022522D01*
X012714Y022489D01*
X012689Y022459D01*
X012661Y022432D01*
X012630Y022407D01*
X012597Y022386D01*
X012562Y022368D01*
X012525Y022354D01*
X012488Y022343D01*
X012449Y022336D01*
X012410Y022333D01*
X012371Y022334D01*
X012332Y022339D01*
X012293Y022348D01*
X012256Y022360D01*
X012220Y022376D01*
X012186Y022396D01*
X012154Y022419D01*
X012125Y022445D01*
X012098Y022474D01*
X012074Y022505D01*
X012054Y022539D01*
X012037Y022574D01*
X012024Y022611D01*
X012014Y022649D01*
X012008Y022688D01*
X012006Y022727D01*
D16*
X031762Y008632D02*
X031764Y008667D01*
X031770Y008702D01*
X031780Y008736D01*
X031793Y008769D01*
X031810Y008800D01*
X031831Y008828D01*
X031854Y008855D01*
X031881Y008878D01*
X031909Y008899D01*
X031940Y008916D01*
X031973Y008929D01*
X032007Y008939D01*
X032042Y008945D01*
X032077Y008947D01*
X032112Y008945D01*
X032147Y008939D01*
X032181Y008929D01*
X032214Y008916D01*
X032245Y008899D01*
X032273Y008878D01*
X032300Y008855D01*
X032323Y008828D01*
X032344Y008800D01*
X032361Y008769D01*
X032374Y008736D01*
X032384Y008702D01*
X032390Y008667D01*
X032392Y008632D01*
X032390Y008597D01*
X032384Y008562D01*
X032374Y008528D01*
X032361Y008495D01*
X032344Y008464D01*
X032323Y008436D01*
X032300Y008409D01*
X032273Y008386D01*
X032245Y008365D01*
X032214Y008348D01*
X032181Y008335D01*
X032147Y008325D01*
X032112Y008319D01*
X032077Y008317D01*
X032042Y008319D01*
X032007Y008325D01*
X031973Y008335D01*
X031940Y008348D01*
X031909Y008365D01*
X031881Y008386D01*
X031854Y008409D01*
X031831Y008436D01*
X031810Y008464D01*
X031793Y008495D01*
X031780Y008528D01*
X031770Y008562D01*
X031764Y008597D01*
X031762Y008632D01*
D17*
X032795Y018748D02*
X032795Y018898D01*
X032870Y018898D01*
X032895Y018873D01*
X032895Y018823D01*
X032870Y018798D01*
X032795Y018798D01*
X032845Y018798D02*
X032895Y018748D01*
X032942Y018748D02*
X033042Y018748D01*
X032992Y018748D02*
X032992Y018898D01*
X032942Y018848D01*
X033090Y018823D02*
X033190Y018823D01*
X033165Y018748D02*
X033165Y018898D01*
X033090Y018823D01*
X030690Y018798D02*
X030690Y018773D01*
X030665Y018748D01*
X030615Y018748D01*
X030590Y018773D01*
X030542Y018748D02*
X030442Y018748D01*
X030395Y018748D02*
X030345Y018798D01*
X030370Y018798D02*
X030295Y018798D01*
X030295Y018748D02*
X030295Y018898D01*
X030370Y018898D01*
X030395Y018873D01*
X030395Y018823D01*
X030370Y018798D01*
X030442Y018848D02*
X030492Y018898D01*
X030492Y018748D01*
X030590Y018873D02*
X030615Y018898D01*
X030665Y018898D01*
X030690Y018873D01*
X030690Y018848D01*
X030665Y018823D01*
X030690Y018798D01*
X030665Y018823D02*
X030640Y018823D01*
X030442Y020748D02*
X030442Y020773D01*
X030542Y020873D01*
X030542Y020898D01*
X030442Y020898D01*
X030395Y020873D02*
X030395Y020823D01*
X030370Y020798D01*
X030295Y020798D01*
X030295Y020748D02*
X030295Y020898D01*
X030370Y020898D01*
X030395Y020873D01*
X030345Y020798D02*
X030395Y020748D01*
X032795Y020748D02*
X032795Y020898D01*
X032870Y020898D01*
X032895Y020873D01*
X032895Y020823D01*
X032870Y020798D01*
X032795Y020798D01*
X032845Y020798D02*
X032895Y020748D01*
X032942Y020773D02*
X032942Y020798D01*
X032967Y020823D01*
X033017Y020823D01*
X033042Y020798D01*
X033042Y020773D01*
X033017Y020748D01*
X032967Y020748D01*
X032942Y020773D01*
X032967Y020823D02*
X032942Y020848D01*
X032942Y020873D01*
X032967Y020898D01*
X033017Y020898D01*
X033042Y020873D01*
X033042Y020848D01*
X033017Y020823D01*
X033042Y022748D02*
X032942Y022748D01*
X033042Y022848D01*
X033042Y022873D01*
X033017Y022898D01*
X032967Y022898D01*
X032942Y022873D01*
X032895Y022873D02*
X032895Y022823D01*
X032870Y022798D01*
X032795Y022798D01*
X032795Y022748D02*
X032795Y022898D01*
X032870Y022898D01*
X032895Y022873D01*
X032845Y022798D02*
X032895Y022748D01*
X030542Y022748D02*
X030442Y022748D01*
X030395Y022748D02*
X030345Y022798D01*
X030370Y022798D02*
X030295Y022798D01*
X030295Y022748D02*
X030295Y022898D01*
X030370Y022898D01*
X030395Y022873D01*
X030395Y022823D01*
X030370Y022798D01*
X030442Y022848D02*
X030492Y022898D01*
X030492Y022748D01*
X010448Y014638D02*
X010348Y014638D01*
X010348Y014563D01*
X010398Y014588D01*
X010423Y014588D01*
X010448Y014563D01*
X010448Y014513D01*
X010423Y014488D01*
X010373Y014488D01*
X010348Y014513D01*
X010300Y014488D02*
X010200Y014488D01*
X010153Y014488D02*
X010103Y014538D01*
X010128Y014538D02*
X010053Y014538D01*
X010053Y014488D02*
X010053Y014638D01*
X010128Y014638D01*
X010153Y014613D01*
X010153Y014563D01*
X010128Y014538D01*
X010200Y014588D02*
X010250Y014638D01*
X010250Y014488D01*
X007690Y015273D02*
X007690Y015298D01*
X007665Y015323D01*
X007590Y015323D01*
X007590Y015273D01*
X007615Y015248D01*
X007665Y015248D01*
X007690Y015273D01*
X007640Y015373D02*
X007590Y015323D01*
X007640Y015373D02*
X007690Y015398D01*
X007492Y015398D02*
X007492Y015248D01*
X007442Y015248D02*
X007542Y015248D01*
X007442Y015348D02*
X007492Y015398D01*
X007395Y015373D02*
X007395Y015323D01*
X007370Y015298D01*
X007295Y015298D01*
X007295Y015248D02*
X007295Y015398D01*
X007370Y015398D01*
X007395Y015373D01*
X007345Y015298D02*
X007395Y015248D01*
X005190Y015373D02*
X005090Y015273D01*
X005090Y015248D01*
X005042Y015248D02*
X004942Y015248D01*
X004895Y015248D02*
X004845Y015298D01*
X004870Y015298D02*
X004795Y015298D01*
X004795Y015248D02*
X004795Y015398D01*
X004870Y015398D01*
X004895Y015373D01*
X004895Y015323D01*
X004870Y015298D01*
X004942Y015348D02*
X004992Y015398D01*
X004992Y015248D01*
X005090Y015398D02*
X005190Y015398D01*
X005190Y015373D01*
X002690Y015373D02*
X002690Y015348D01*
X002665Y015323D01*
X002615Y015323D01*
X002590Y015348D01*
X002590Y015373D01*
X002615Y015398D01*
X002665Y015398D01*
X002690Y015373D01*
X002665Y015323D02*
X002690Y015298D01*
X002690Y015273D01*
X002665Y015248D01*
X002615Y015248D01*
X002590Y015273D01*
X002590Y015298D01*
X002615Y015323D01*
X002542Y015248D02*
X002442Y015248D01*
X002395Y015248D02*
X002345Y015298D01*
X002370Y015298D02*
X002295Y015298D01*
X002295Y015248D02*
X002295Y015398D01*
X002370Y015398D01*
X002395Y015373D01*
X002395Y015323D01*
X002370Y015298D01*
X002442Y015348D02*
X002492Y015398D01*
X002492Y015248D01*
X001835Y019598D02*
X001685Y019598D01*
X001685Y019673D01*
X001710Y019698D01*
X001760Y019698D01*
X001785Y019673D01*
X001785Y019598D01*
X001785Y019648D02*
X001835Y019698D01*
X001810Y019745D02*
X001835Y019770D01*
X001835Y019821D01*
X001810Y019846D01*
X001785Y019846D01*
X001760Y019821D01*
X001760Y019745D01*
X001810Y019745D01*
X001760Y019745D02*
X001710Y019796D01*
X001685Y019846D01*
X004185Y019846D02*
X004185Y019745D01*
X004260Y019745D01*
X004235Y019796D01*
X004235Y019821D01*
X004260Y019846D01*
X004310Y019846D01*
X004335Y019821D01*
X004335Y019770D01*
X004310Y019745D01*
X004335Y019698D02*
X004285Y019648D01*
X004285Y019673D02*
X004285Y019598D01*
X004335Y019598D02*
X004185Y019598D01*
X004185Y019673D01*
X004210Y019698D01*
X004260Y019698D01*
X004285Y019673D01*
X006685Y019673D02*
X006685Y019598D01*
X006835Y019598D01*
X006785Y019598D02*
X006785Y019673D01*
X006760Y019698D01*
X006710Y019698D01*
X006685Y019673D01*
X006785Y019648D02*
X006835Y019698D01*
X006760Y019745D02*
X006760Y019846D01*
X006835Y019821D02*
X006685Y019821D01*
X006760Y019745D01*
X009185Y019770D02*
X009185Y019821D01*
X009210Y019846D01*
X009235Y019846D01*
X009260Y019821D01*
X009285Y019846D01*
X009310Y019846D01*
X009335Y019821D01*
X009335Y019770D01*
X009310Y019745D01*
X009335Y019698D02*
X009285Y019648D01*
X009285Y019673D02*
X009285Y019598D01*
X009335Y019598D02*
X009185Y019598D01*
X009185Y019673D01*
X009210Y019698D01*
X009260Y019698D01*
X009285Y019673D01*
X009210Y019745D02*
X009185Y019770D01*
X009260Y019796D02*
X009260Y019821D01*
X009285Y021598D02*
X009285Y021673D01*
X009260Y021698D01*
X009210Y021698D01*
X009185Y021673D01*
X009185Y021598D01*
X009335Y021598D01*
X009285Y021648D02*
X009335Y021698D01*
X009310Y021745D02*
X009335Y021770D01*
X009335Y021821D01*
X009310Y021846D01*
X009210Y021846D01*
X009185Y021821D01*
X009185Y021770D01*
X009210Y021745D01*
X009235Y021745D01*
X009260Y021770D01*
X009260Y021846D01*
X006835Y021846D02*
X006835Y021745D01*
X006835Y021698D02*
X006785Y021648D01*
X006785Y021673D02*
X006785Y021598D01*
X006835Y021598D02*
X006685Y021598D01*
X006685Y021673D01*
X006710Y021698D01*
X006760Y021698D01*
X006785Y021673D01*
X006735Y021745D02*
X006685Y021796D01*
X006835Y021796D01*
X006810Y021893D02*
X006710Y021993D01*
X006810Y021993D01*
X006835Y021968D01*
X006835Y021918D01*
X006810Y021893D01*
X006710Y021893D01*
X006685Y021918D01*
X006685Y021968D01*
X006710Y021993D01*
X004335Y021993D02*
X004335Y021893D01*
X004335Y021846D02*
X004335Y021745D01*
X004335Y021698D02*
X004285Y021648D01*
X004285Y021673D02*
X004285Y021598D01*
X004335Y021598D02*
X004185Y021598D01*
X004185Y021673D01*
X004210Y021698D01*
X004260Y021698D01*
X004285Y021673D01*
X004235Y021745D02*
X004185Y021796D01*
X004335Y021796D01*
X004235Y021893D02*
X004185Y021943D01*
X004335Y021943D01*
X001835Y021993D02*
X001835Y021893D01*
X001735Y021993D01*
X001710Y021993D01*
X001685Y021968D01*
X001685Y021918D01*
X001710Y021893D01*
X001685Y021796D02*
X001835Y021796D01*
X001835Y021846D02*
X001835Y021745D01*
X001835Y021698D02*
X001785Y021648D01*
X001785Y021673D02*
X001785Y021598D01*
X001835Y021598D02*
X001685Y021598D01*
X001685Y021673D01*
X001710Y021698D01*
X001760Y021698D01*
X001785Y021673D01*
X001735Y021745D02*
X001685Y021796D01*
D18*
X002640Y014943D03*
X005140Y014943D03*
X007640Y014943D03*
X010140Y014943D03*
X030640Y018443D03*
X033140Y018443D03*
X033140Y020443D03*
X030640Y020443D03*
X030640Y022443D03*
X033140Y022443D03*
D19*
X009640Y021943D03*
X007140Y021943D03*
X007140Y019943D03*
X009640Y019943D03*
X004640Y019943D03*
X002140Y019943D03*
X002140Y021943D03*
X004640Y021943D03*
M02*
