G75*
%MOIN*%
%OFA0B0*%
%FSLAX24Y24*%
%IPPOS*%
%LPD*%
%AMOC8*
5,1,8,0,0,1.08239X$1,22.5*
%
%ADD10C,0.0080*%
%ADD11C,0.0740*%
%ADD12C,0.0768*%
%ADD13C,0.0000*%
%ADD14R,0.0394X0.0315*%
%ADD15R,0.0433X0.0394*%
%ADD16R,0.0394X0.0433*%
%ADD17C,0.0100*%
%ADD18C,0.0360*%
%ADD19C,0.3000*%
D10*
X002109Y007817D02*
X024156Y007817D01*
X024356Y007817D02*
X024356Y007900D01*
X024239Y008017D01*
X002109Y008017D01*
X001910Y008028D01*
X001524Y008116D01*
X001168Y008288D01*
X000858Y008535D01*
X000611Y008845D01*
X000439Y009202D01*
X000351Y009588D01*
X000340Y009786D01*
X000340Y025534D01*
X001080Y025534D01*
X001093Y025584D02*
X000980Y025162D01*
X000980Y024725D01*
X001093Y024302D01*
X001312Y023924D01*
X001621Y023615D01*
X001999Y023396D01*
X002421Y023283D01*
X002859Y023283D01*
X003281Y023396D01*
X003659Y023615D01*
X003968Y023924D01*
X004187Y024302D01*
X004300Y024725D01*
X004300Y025162D01*
X004187Y025584D01*
X003968Y025962D01*
X003659Y026271D01*
X003281Y026490D01*
X002859Y026603D01*
X002421Y026603D01*
X001999Y026490D01*
X001621Y026271D01*
X001312Y025962D01*
X001093Y025584D01*
X001110Y025613D02*
X000344Y025613D01*
X000349Y025691D02*
X001155Y025691D01*
X001200Y025770D02*
X000360Y025770D01*
X000351Y025732D02*
X000439Y026118D01*
X000611Y026475D01*
X000858Y026784D01*
X001168Y027031D01*
X001524Y027203D01*
X001910Y027291D01*
X002109Y027302D01*
X037542Y027302D01*
X037740Y027291D01*
X038126Y027203D01*
X038482Y027031D01*
X038792Y026784D01*
X039039Y026475D01*
X039211Y026118D01*
X039299Y025732D01*
X039310Y025534D01*
X038700Y025534D01*
X038687Y025584D02*
X038468Y025962D01*
X038159Y026271D01*
X037781Y026490D01*
X037359Y026603D01*
X036921Y026603D01*
X036499Y026490D01*
X036121Y026271D01*
X035812Y025962D01*
X035593Y025584D01*
X035480Y025162D01*
X035480Y024725D01*
X035593Y024302D01*
X035812Y023924D01*
X036121Y023615D01*
X036499Y023396D01*
X036921Y023283D01*
X037359Y023283D01*
X037781Y023396D01*
X038159Y023615D01*
X038468Y023924D01*
X038687Y024302D01*
X038800Y024725D01*
X038800Y025162D01*
X038687Y025584D01*
X038670Y025613D02*
X039306Y025613D01*
X039301Y025691D02*
X038625Y025691D01*
X038580Y025770D02*
X039290Y025770D01*
X039272Y025848D02*
X038534Y025848D01*
X038489Y025927D02*
X039254Y025927D01*
X039237Y026005D02*
X038426Y026005D01*
X038347Y026084D02*
X039219Y026084D01*
X039189Y026162D02*
X038269Y026162D01*
X038190Y026241D02*
X039152Y026241D01*
X039114Y026319D02*
X038077Y026319D01*
X037941Y026398D02*
X039076Y026398D01*
X039038Y026476D02*
X037805Y026476D01*
X037539Y026555D02*
X038975Y026555D01*
X038913Y026633D02*
X000738Y026633D01*
X000800Y026712D02*
X038850Y026712D01*
X038785Y026790D02*
X000866Y026790D01*
X000964Y026869D02*
X038686Y026869D01*
X038588Y026947D02*
X001062Y026947D01*
X001161Y027026D02*
X038489Y027026D01*
X038331Y027104D02*
X001319Y027104D01*
X001482Y027183D02*
X038168Y027183D01*
X037870Y027261D02*
X001780Y027261D01*
X002109Y027502D02*
X037542Y027502D01*
X036741Y026555D02*
X020539Y026555D01*
X020359Y026603D02*
X019921Y026603D01*
X019499Y026490D01*
X019121Y026271D01*
X018812Y025962D01*
X018593Y025584D01*
X018480Y025162D01*
X018480Y024725D01*
X018593Y024302D01*
X018812Y023924D01*
X019121Y023615D01*
X019499Y023396D01*
X019921Y023283D01*
X020359Y023283D01*
X020781Y023396D01*
X021159Y023615D01*
X021468Y023924D01*
X021687Y024302D01*
X021800Y024725D01*
X021800Y025162D01*
X021687Y025584D01*
X021468Y025962D01*
X021159Y026271D01*
X020781Y026490D01*
X020359Y026603D01*
X020805Y026476D02*
X036475Y026476D01*
X036339Y026398D02*
X020941Y026398D01*
X021077Y026319D02*
X036203Y026319D01*
X036090Y026241D02*
X021190Y026241D01*
X021269Y026162D02*
X036011Y026162D01*
X035933Y026084D02*
X021347Y026084D01*
X021426Y026005D02*
X035854Y026005D01*
X035791Y025927D02*
X021489Y025927D01*
X021534Y025848D02*
X035746Y025848D01*
X035700Y025770D02*
X021580Y025770D01*
X021625Y025691D02*
X035655Y025691D01*
X035610Y025613D02*
X021670Y025613D01*
X021700Y025534D02*
X035580Y025534D01*
X035559Y025456D02*
X021721Y025456D01*
X021742Y025377D02*
X035538Y025377D01*
X035517Y025299D02*
X021763Y025299D01*
X021784Y025220D02*
X035496Y025220D01*
X035480Y025142D02*
X021800Y025142D01*
X021800Y025063D02*
X035480Y025063D01*
X035480Y024985D02*
X021800Y024985D01*
X021800Y024906D02*
X035480Y024906D01*
X035480Y024828D02*
X021800Y024828D01*
X021800Y024749D02*
X035480Y024749D01*
X035494Y024671D02*
X021786Y024671D01*
X021765Y024592D02*
X035515Y024592D01*
X035537Y024514D02*
X021743Y024514D01*
X021722Y024435D02*
X035558Y024435D01*
X035579Y024357D02*
X021701Y024357D01*
X021673Y024278D02*
X035607Y024278D01*
X035652Y024200D02*
X021628Y024200D01*
X021582Y024121D02*
X035698Y024121D01*
X035743Y024043D02*
X021537Y024043D01*
X021492Y023964D02*
X035788Y023964D01*
X035850Y023886D02*
X021430Y023886D01*
X021352Y023807D02*
X035928Y023807D01*
X036007Y023729D02*
X021273Y023729D01*
X021195Y023650D02*
X036085Y023650D01*
X036195Y023572D02*
X021085Y023572D01*
X020949Y023493D02*
X036331Y023493D01*
X036467Y023415D02*
X020813Y023415D01*
X020557Y023336D02*
X036723Y023336D01*
X037557Y023336D02*
X039310Y023336D01*
X039310Y023258D02*
X018622Y023258D01*
X018544Y023336D02*
X019723Y023336D01*
X019467Y023415D02*
X018465Y023415D01*
X018387Y023493D02*
X019331Y023493D01*
X019195Y023572D02*
X018308Y023572D01*
X018230Y023650D02*
X019085Y023650D01*
X019007Y023729D02*
X018151Y023729D01*
X018100Y023780D02*
X017977Y023903D01*
X005053Y023903D01*
X004930Y023780D01*
X003553Y022403D01*
X002497Y022403D01*
X002497Y022561D01*
X002403Y022654D01*
X001877Y022654D01*
X001783Y022561D01*
X001783Y021995D01*
X001835Y021943D01*
X001783Y021891D01*
X001783Y021326D01*
X001877Y021232D01*
X002403Y021232D01*
X002497Y021326D01*
X002497Y021483D01*
X002803Y021483D01*
X002930Y021356D01*
X002930Y020381D01*
X002928Y020386D01*
X002833Y020481D01*
X002708Y020533D01*
X002572Y020533D01*
X002497Y020502D01*
X002497Y020561D01*
X002403Y020654D01*
X001877Y020654D01*
X001783Y020561D01*
X001783Y019995D01*
X001835Y019943D01*
X001783Y019891D01*
X001783Y019326D01*
X001877Y019232D01*
X001930Y019232D01*
X001930Y018714D01*
X001852Y018636D01*
X001800Y018511D01*
X001800Y018376D01*
X001852Y018251D01*
X001947Y018155D01*
X000340Y018155D01*
X000340Y018077D02*
X008459Y018077D01*
X008381Y018155D02*
X007333Y018155D01*
X007428Y018251D01*
X007480Y018376D01*
X007480Y018511D01*
X007428Y018636D01*
X007350Y018714D01*
X007350Y019232D01*
X007403Y019232D01*
X007430Y019259D01*
X007430Y019106D01*
X010273Y016263D01*
X010197Y016231D01*
X010102Y016136D01*
X010050Y016011D01*
X010050Y015876D01*
X010102Y015751D01*
X010180Y015672D01*
X010180Y015288D01*
X010140Y015248D01*
X010088Y015300D01*
X009523Y015300D01*
X009429Y015206D01*
X009429Y015134D01*
X009428Y015136D01*
X009333Y015231D01*
X009208Y015283D01*
X009072Y015283D01*
X008947Y015231D01*
X008869Y015153D01*
X008351Y015153D01*
X008351Y015206D01*
X008257Y015300D01*
X007794Y015300D01*
X008847Y016353D01*
X008958Y016353D01*
X009083Y016405D01*
X009178Y016501D01*
X009230Y016626D01*
X009230Y016761D01*
X009178Y016886D01*
X009083Y016981D01*
X008958Y017033D01*
X008822Y017033D01*
X008697Y016981D01*
X008602Y016886D01*
X008550Y016761D01*
X008550Y016650D01*
X007200Y015300D01*
X007023Y015300D01*
X006929Y015206D01*
X006929Y015134D01*
X006928Y015136D01*
X006833Y015231D01*
X006708Y015283D01*
X006572Y015283D01*
X006447Y015231D01*
X006369Y015153D01*
X005851Y015153D01*
X005851Y015206D01*
X005757Y015300D01*
X005294Y015300D01*
X006347Y016353D01*
X006458Y016353D01*
X006583Y016405D01*
X006678Y016501D01*
X006730Y016626D01*
X006730Y016761D01*
X006678Y016886D01*
X006583Y016981D01*
X006458Y017033D01*
X006322Y017033D01*
X006197Y016981D01*
X006102Y016886D01*
X006050Y016761D01*
X006050Y016650D01*
X004700Y015300D01*
X004523Y015300D01*
X004429Y015206D01*
X004429Y014680D01*
X004523Y014586D01*
X005088Y014586D01*
X005140Y014638D01*
X005192Y014586D01*
X005757Y014586D01*
X005851Y014680D01*
X005851Y014733D01*
X006369Y014733D01*
X006447Y014655D01*
X006572Y014603D01*
X006708Y014603D01*
X006833Y014655D01*
X006928Y014751D01*
X006929Y014752D01*
X006929Y014680D01*
X007023Y014586D01*
X007588Y014586D01*
X007640Y014638D01*
X007692Y014586D01*
X008257Y014586D01*
X008351Y014680D01*
X008351Y014733D01*
X008869Y014733D01*
X008947Y014655D01*
X009072Y014603D01*
X009208Y014603D01*
X009333Y014655D01*
X009428Y014751D01*
X009429Y014752D01*
X009429Y014680D01*
X009523Y014586D01*
X009700Y014586D01*
X010800Y013486D01*
X010800Y013376D01*
X010852Y013251D01*
X010947Y013155D01*
X011072Y013103D01*
X011208Y013103D01*
X011333Y013155D01*
X011428Y013251D01*
X011480Y013376D01*
X011480Y013511D01*
X011428Y013636D01*
X011333Y013731D01*
X011208Y013783D01*
X011097Y013783D01*
X010294Y014586D01*
X010757Y014586D01*
X010851Y014680D01*
X010851Y015206D01*
X010757Y015300D01*
X010600Y015300D01*
X010600Y015672D01*
X010678Y015751D01*
X010710Y015826D01*
X011050Y015486D01*
X011050Y015376D01*
X011102Y015251D01*
X010807Y015251D01*
X010851Y015172D02*
X011180Y015172D01*
X011197Y015155D02*
X011322Y015103D01*
X011458Y015103D01*
X011583Y015155D01*
X011678Y015251D01*
X011680Y015251D01*
X011678Y015251D02*
X011680Y015255D01*
X011680Y014356D01*
X013050Y012986D01*
X013050Y012876D01*
X013102Y012751D01*
X013197Y012655D01*
X013202Y012653D01*
X006227Y012653D01*
X003727Y015153D01*
X003351Y015153D01*
X003351Y015206D01*
X003257Y015300D01*
X002692Y015300D01*
X002640Y015248D01*
X002600Y015288D01*
X002600Y015356D01*
X003597Y016353D01*
X003708Y016353D01*
X003833Y016405D01*
X003928Y016501D01*
X003980Y016626D01*
X003980Y016761D01*
X003928Y016886D01*
X003833Y016981D01*
X003708Y017033D01*
X003572Y017033D01*
X003447Y016981D01*
X003352Y016886D01*
X003300Y016761D01*
X003300Y016650D01*
X002180Y015530D01*
X002180Y015300D01*
X002023Y015300D01*
X001929Y015206D01*
X001929Y014680D01*
X002023Y014586D01*
X002588Y014586D01*
X002640Y014638D01*
X002692Y014586D01*
X003257Y014586D01*
X003351Y014680D01*
X003351Y014733D01*
X003553Y014733D01*
X005930Y012356D01*
X006053Y012233D01*
X017430Y012233D01*
X017430Y011530D01*
X015553Y009653D01*
X015430Y009530D01*
X015430Y009432D01*
X015293Y009295D01*
X015242Y009172D01*
X015192Y009295D01*
X015043Y009444D01*
X014848Y009524D01*
X014637Y009524D01*
X014442Y009444D01*
X014293Y009295D01*
X014242Y009172D01*
X014192Y009295D01*
X014043Y009444D01*
X013848Y009524D01*
X013637Y009524D01*
X013442Y009444D01*
X013293Y009295D01*
X013230Y009143D01*
X013215Y009190D01*
X013179Y009262D01*
X013131Y009327D01*
X013075Y009383D01*
X013010Y009431D01*
X012938Y009467D01*
X012862Y009492D01*
X012783Y009504D01*
X012782Y009504D01*
X012782Y009034D01*
X012702Y009034D01*
X012702Y008954D01*
X012232Y008954D01*
X012245Y008875D01*
X012270Y008799D01*
X012306Y008727D01*
X012353Y008662D01*
X012410Y008605D01*
X012475Y008558D01*
X012547Y008522D01*
X012623Y008497D01*
X012702Y008484D01*
X012702Y008484D01*
X012702Y008954D01*
X012782Y008954D01*
X012782Y008484D01*
X012783Y008484D01*
X012862Y008497D01*
X012938Y008522D01*
X013010Y008558D01*
X013075Y008605D01*
X013131Y008662D01*
X013179Y008727D01*
X013215Y008799D01*
X013230Y008846D01*
X013293Y008694D01*
X013442Y008545D01*
X013637Y008464D01*
X013848Y008464D01*
X014043Y008545D01*
X014192Y008694D01*
X014242Y008816D01*
X014293Y008694D01*
X014442Y008545D01*
X014637Y008464D01*
X014848Y008464D01*
X015043Y008545D01*
X015192Y008694D01*
X015242Y008816D01*
X015293Y008694D01*
X015442Y008545D01*
X015637Y008464D01*
X015848Y008464D01*
X016043Y008545D01*
X016192Y008694D01*
X016242Y008816D01*
X016293Y008694D01*
X016442Y008545D01*
X016637Y008464D01*
X016848Y008464D01*
X017043Y008545D01*
X017192Y008694D01*
X017242Y008816D01*
X017293Y008694D01*
X017442Y008545D01*
X017637Y008464D01*
X017848Y008464D01*
X018006Y008530D01*
X018303Y008233D01*
X024227Y008233D01*
X024350Y008356D01*
X024477Y008483D01*
X031072Y008483D01*
X031011Y008423D01*
X031011Y007975D01*
X031105Y007882D01*
X031631Y007882D01*
X031725Y007975D01*
X031725Y008423D01*
X031665Y008483D01*
X031727Y008483D01*
X031850Y008606D01*
X032429Y009185D01*
X032429Y008841D01*
X032523Y008748D01*
X033049Y008748D01*
X033143Y008841D01*
X033143Y009289D01*
X033049Y009383D01*
X032627Y009383D01*
X034350Y011106D01*
X034350Y020280D01*
X034227Y020403D01*
X034100Y020530D01*
X033977Y020653D01*
X033851Y020653D01*
X033851Y020706D01*
X033757Y020800D01*
X033192Y020800D01*
X033140Y020748D01*
X033088Y020800D01*
X032523Y020800D01*
X032429Y020706D01*
X032429Y020653D01*
X032411Y020653D01*
X032333Y020731D01*
X032208Y020783D01*
X032072Y020783D01*
X031947Y020731D01*
X031852Y020636D01*
X031850Y020631D01*
X031850Y022030D01*
X031757Y022123D01*
X031833Y022155D01*
X031911Y022233D01*
X032429Y022233D01*
X032429Y022180D01*
X032523Y022086D01*
X033088Y022086D01*
X033140Y022138D01*
X033192Y022086D01*
X033757Y022086D01*
X033851Y022180D01*
X033851Y022706D01*
X033757Y022800D01*
X033580Y022800D01*
X033350Y023030D01*
X033227Y023153D01*
X028803Y023153D01*
X027930Y022280D01*
X027930Y018530D01*
X024272Y014872D01*
X024272Y015068D01*
X024192Y015263D01*
X024043Y015412D01*
X023848Y015493D01*
X023637Y015493D01*
X023442Y015412D01*
X023293Y015263D01*
X023242Y015141D01*
X023192Y015263D01*
X023043Y015412D01*
X022848Y015493D01*
X022637Y015493D01*
X022442Y015412D01*
X022293Y015263D01*
X022242Y015141D01*
X022192Y015263D01*
X022043Y015412D01*
X021848Y015493D01*
X021637Y015493D01*
X021442Y015412D01*
X021293Y015263D01*
X021242Y015141D01*
X021192Y015263D01*
X021043Y015412D01*
X020850Y015492D01*
X020850Y018030D01*
X020727Y018153D01*
X019100Y019780D01*
X019100Y022780D01*
X018977Y022903D01*
X018100Y023780D01*
X018073Y023807D02*
X018928Y023807D01*
X018850Y023886D02*
X017994Y023886D01*
X018607Y024278D02*
X004173Y024278D01*
X004201Y024357D02*
X018579Y024357D01*
X018558Y024435D02*
X004222Y024435D01*
X004243Y024514D02*
X018537Y024514D01*
X018515Y024592D02*
X004265Y024592D01*
X004286Y024671D02*
X018494Y024671D01*
X018480Y024749D02*
X004300Y024749D01*
X004300Y024828D02*
X018480Y024828D01*
X018480Y024906D02*
X004300Y024906D01*
X004300Y024985D02*
X018480Y024985D01*
X018480Y025063D02*
X004300Y025063D01*
X004300Y025142D02*
X018480Y025142D01*
X018496Y025220D02*
X004284Y025220D01*
X004263Y025299D02*
X018517Y025299D01*
X018538Y025377D02*
X004242Y025377D01*
X004221Y025456D02*
X018559Y025456D01*
X018580Y025534D02*
X004200Y025534D01*
X004170Y025613D02*
X018610Y025613D01*
X018655Y025691D02*
X004125Y025691D01*
X004080Y025770D02*
X018700Y025770D01*
X018746Y025848D02*
X004034Y025848D01*
X003989Y025927D02*
X018791Y025927D01*
X018854Y026005D02*
X003926Y026005D01*
X003847Y026084D02*
X018933Y026084D01*
X019011Y026162D02*
X003769Y026162D01*
X003690Y026241D02*
X019090Y026241D01*
X019203Y026319D02*
X003577Y026319D01*
X003441Y026398D02*
X019339Y026398D01*
X019475Y026476D02*
X003305Y026476D01*
X003039Y026555D02*
X019741Y026555D01*
X018652Y024200D02*
X004128Y024200D01*
X004082Y024121D02*
X018698Y024121D01*
X018743Y024043D02*
X004037Y024043D01*
X003992Y023964D02*
X018788Y023964D01*
X018701Y023179D02*
X039310Y023179D01*
X039310Y023101D02*
X033279Y023101D01*
X033358Y023022D02*
X039310Y023022D01*
X039310Y022944D02*
X033436Y022944D01*
X033515Y022865D02*
X039310Y022865D01*
X039310Y022787D02*
X033771Y022787D01*
X033849Y022708D02*
X039310Y022708D01*
X039310Y022630D02*
X033851Y022630D01*
X033851Y022551D02*
X039310Y022551D01*
X039310Y022473D02*
X033851Y022473D01*
X033851Y022394D02*
X039310Y022394D01*
X039310Y022316D02*
X033851Y022316D01*
X033851Y022237D02*
X039310Y022237D01*
X039310Y022159D02*
X033830Y022159D01*
X032450Y022159D02*
X031836Y022159D01*
X031800Y022080D02*
X039310Y022080D01*
X039310Y022002D02*
X031850Y022002D01*
X031850Y021923D02*
X039310Y021923D01*
X039310Y021845D02*
X031850Y021845D01*
X031850Y021766D02*
X039310Y021766D01*
X039310Y021688D02*
X031850Y021688D01*
X031850Y021609D02*
X039310Y021609D01*
X039310Y021531D02*
X031850Y021531D01*
X031850Y021452D02*
X039310Y021452D01*
X039310Y021374D02*
X031850Y021374D01*
X031850Y021295D02*
X039310Y021295D01*
X039310Y021217D02*
X031850Y021217D01*
X031850Y021138D02*
X039310Y021138D01*
X039310Y021060D02*
X031850Y021060D01*
X031850Y020981D02*
X039310Y020981D01*
X039310Y020903D02*
X031850Y020903D01*
X031850Y020824D02*
X039310Y020824D01*
X039310Y020746D02*
X033812Y020746D01*
X033851Y020667D02*
X039310Y020667D01*
X039310Y020589D02*
X034041Y020589D01*
X034120Y020510D02*
X039310Y020510D01*
X039310Y020432D02*
X034198Y020432D01*
X034277Y020353D02*
X039310Y020353D01*
X039310Y020275D02*
X034350Y020275D01*
X034350Y020196D02*
X039310Y020196D01*
X039310Y020118D02*
X034350Y020118D01*
X034350Y020039D02*
X039310Y020039D01*
X039310Y019961D02*
X034350Y019961D01*
X034350Y019882D02*
X039310Y019882D01*
X039310Y019804D02*
X034350Y019804D01*
X034350Y019725D02*
X039310Y019725D01*
X039310Y019647D02*
X034350Y019647D01*
X034350Y019568D02*
X039310Y019568D01*
X039310Y019490D02*
X034350Y019490D01*
X034350Y019411D02*
X039310Y019411D01*
X039310Y019333D02*
X034350Y019333D01*
X034350Y019254D02*
X039310Y019254D01*
X039310Y019176D02*
X034350Y019176D01*
X034350Y019097D02*
X039310Y019097D01*
X039310Y019019D02*
X034350Y019019D01*
X034350Y018940D02*
X039310Y018940D01*
X039310Y018862D02*
X034350Y018862D01*
X034350Y018783D02*
X039310Y018783D01*
X039310Y018705D02*
X034350Y018705D01*
X034350Y018626D02*
X039310Y018626D01*
X039310Y018548D02*
X034350Y018548D01*
X034350Y018469D02*
X039310Y018469D01*
X039310Y018391D02*
X034350Y018391D01*
X034350Y018312D02*
X039310Y018312D01*
X039310Y018234D02*
X034350Y018234D01*
X034350Y018155D02*
X039310Y018155D01*
X039310Y018077D02*
X034350Y018077D01*
X034350Y017998D02*
X039310Y017998D01*
X039310Y017920D02*
X034350Y017920D01*
X034350Y017841D02*
X039310Y017841D01*
X039310Y017763D02*
X034350Y017763D01*
X034350Y017684D02*
X039310Y017684D01*
X039310Y017606D02*
X034350Y017606D01*
X034350Y017527D02*
X039310Y017527D01*
X039310Y017449D02*
X034350Y017449D01*
X034350Y017370D02*
X039310Y017370D01*
X039310Y017292D02*
X034350Y017292D01*
X034350Y017213D02*
X039310Y017213D01*
X039310Y017135D02*
X034350Y017135D01*
X034350Y017056D02*
X039310Y017056D01*
X039310Y016978D02*
X034350Y016978D01*
X034350Y016899D02*
X039310Y016899D01*
X039310Y016821D02*
X034350Y016821D01*
X034350Y016742D02*
X039310Y016742D01*
X039310Y016664D02*
X034350Y016664D01*
X034350Y016585D02*
X039310Y016585D01*
X039310Y016507D02*
X034350Y016507D01*
X034350Y016428D02*
X039310Y016428D01*
X039310Y016350D02*
X034350Y016350D01*
X034350Y016271D02*
X039310Y016271D01*
X039310Y016193D02*
X034350Y016193D01*
X034350Y016114D02*
X039310Y016114D01*
X039310Y016036D02*
X034350Y016036D01*
X034350Y015957D02*
X039310Y015957D01*
X039310Y015879D02*
X034350Y015879D01*
X034350Y015800D02*
X039310Y015800D01*
X039310Y015722D02*
X034350Y015722D01*
X034350Y015643D02*
X039310Y015643D01*
X039310Y015565D02*
X034350Y015565D01*
X034350Y015486D02*
X039310Y015486D01*
X039310Y015408D02*
X034350Y015408D01*
X034350Y015329D02*
X039310Y015329D01*
X039310Y015251D02*
X034350Y015251D01*
X034350Y015172D02*
X039310Y015172D01*
X039310Y015094D02*
X034350Y015094D01*
X034350Y015015D02*
X039310Y015015D01*
X039310Y014937D02*
X034350Y014937D01*
X034350Y014858D02*
X039310Y014858D01*
X039310Y014780D02*
X034350Y014780D01*
X034350Y014701D02*
X039310Y014701D01*
X039310Y014623D02*
X034350Y014623D01*
X034350Y014544D02*
X039310Y014544D01*
X039310Y014466D02*
X034350Y014466D01*
X034350Y014387D02*
X039310Y014387D01*
X039310Y014309D02*
X034350Y014309D01*
X034350Y014230D02*
X039310Y014230D01*
X039310Y014152D02*
X034350Y014152D01*
X034350Y014073D02*
X039310Y014073D01*
X039310Y013995D02*
X034350Y013995D01*
X034350Y013916D02*
X039310Y013916D01*
X039310Y013838D02*
X034350Y013838D01*
X034350Y013759D02*
X039310Y013759D01*
X039310Y013681D02*
X034350Y013681D01*
X034350Y013602D02*
X039310Y013602D01*
X039310Y013524D02*
X034350Y013524D01*
X034350Y013445D02*
X039310Y013445D01*
X039310Y013367D02*
X034350Y013367D01*
X034350Y013288D02*
X039310Y013288D01*
X039310Y013210D02*
X034350Y013210D01*
X034350Y013131D02*
X039310Y013131D01*
X039310Y013053D02*
X034350Y013053D01*
X034350Y012974D02*
X039310Y012974D01*
X039310Y012896D02*
X034350Y012896D01*
X034350Y012817D02*
X039310Y012817D01*
X039310Y012739D02*
X034350Y012739D01*
X034350Y012660D02*
X039310Y012660D01*
X039310Y012582D02*
X034350Y012582D01*
X034350Y012503D02*
X039310Y012503D01*
X039310Y012425D02*
X034350Y012425D01*
X034350Y012346D02*
X039310Y012346D01*
X039310Y012268D02*
X034350Y012268D01*
X034350Y012189D02*
X039310Y012189D01*
X039310Y012111D02*
X034350Y012111D01*
X034350Y012032D02*
X039310Y012032D01*
X039310Y011954D02*
X034350Y011954D01*
X034350Y011875D02*
X039310Y011875D01*
X039310Y011797D02*
X034350Y011797D01*
X034350Y011718D02*
X039310Y011718D01*
X039310Y011640D02*
X034350Y011640D01*
X034350Y011561D02*
X039310Y011561D01*
X039310Y011483D02*
X034350Y011483D01*
X034350Y011404D02*
X039310Y011404D01*
X039310Y011326D02*
X034350Y011326D01*
X034350Y011247D02*
X039310Y011247D01*
X039310Y011169D02*
X034350Y011169D01*
X034334Y011090D02*
X039310Y011090D01*
X039310Y011012D02*
X034256Y011012D01*
X034177Y010933D02*
X039310Y010933D01*
X039310Y010855D02*
X034099Y010855D01*
X034020Y010776D02*
X039310Y010776D01*
X039310Y010698D02*
X033942Y010698D01*
X033863Y010619D02*
X039310Y010619D01*
X039310Y010541D02*
X033785Y010541D01*
X033706Y010462D02*
X039310Y010462D01*
X039310Y010384D02*
X033628Y010384D01*
X033549Y010305D02*
X039310Y010305D01*
X039310Y010227D02*
X033471Y010227D01*
X033392Y010148D02*
X039310Y010148D01*
X039310Y010070D02*
X033314Y010070D01*
X033235Y009991D02*
X039310Y009991D01*
X039310Y009913D02*
X033157Y009913D01*
X033078Y009834D02*
X039310Y009834D01*
X039310Y009756D02*
X033000Y009756D01*
X032921Y009677D02*
X039310Y009677D01*
X039310Y009599D02*
X032843Y009599D01*
X032764Y009520D02*
X039310Y009520D01*
X039310Y009442D02*
X032686Y009442D01*
X033068Y009363D02*
X039310Y009363D01*
X039310Y009285D02*
X033143Y009285D01*
X033143Y009206D02*
X039310Y009206D01*
X039310Y009128D02*
X033143Y009128D01*
X033143Y009049D02*
X039310Y009049D01*
X039310Y008971D02*
X033143Y008971D01*
X033143Y008892D02*
X039310Y008892D01*
X039310Y008814D02*
X033115Y008814D01*
X033037Y008487D02*
X033001Y008497D01*
X032824Y008497D01*
X032824Y008238D01*
X032747Y008238D01*
X032747Y008497D01*
X032570Y008497D01*
X032535Y008487D01*
X032503Y008469D01*
X032477Y008442D01*
X032458Y008411D01*
X032449Y008375D01*
X032449Y008238D01*
X032747Y008238D01*
X032747Y008160D01*
X032824Y008160D01*
X032824Y007902D01*
X033001Y007902D01*
X033037Y007911D01*
X033068Y007930D01*
X033095Y007956D01*
X033113Y007988D01*
X033123Y008023D01*
X033123Y008160D01*
X032824Y008160D01*
X032824Y008238D01*
X033123Y008238D01*
X033123Y008375D01*
X033113Y008411D01*
X033095Y008442D01*
X033068Y008469D01*
X033037Y008487D01*
X033107Y008421D02*
X039310Y008421D01*
X039310Y008343D02*
X033123Y008343D01*
X033123Y008264D02*
X039310Y008264D01*
X039310Y008186D02*
X032824Y008186D01*
X032747Y008186D02*
X031725Y008186D01*
X031725Y008264D02*
X032449Y008264D01*
X032449Y008343D02*
X031725Y008343D01*
X031725Y008421D02*
X032464Y008421D01*
X032449Y008160D02*
X032449Y008023D01*
X032458Y007988D01*
X032477Y007956D01*
X032503Y007930D01*
X032535Y007911D01*
X032570Y007902D01*
X032747Y007902D01*
X032747Y008160D01*
X032449Y008160D01*
X032449Y008107D02*
X031725Y008107D01*
X031725Y008029D02*
X032449Y008029D01*
X032482Y007950D02*
X031700Y007950D01*
X024156Y007817D02*
X024158Y007630D01*
X024165Y007443D01*
X024176Y007257D01*
X024192Y007070D01*
X024213Y006885D01*
X024238Y006699D01*
X024267Y006515D01*
X024301Y006331D01*
X024340Y006148D01*
X024383Y005966D01*
X024430Y005785D01*
X024482Y005605D01*
X024538Y005427D01*
X024598Y005250D01*
X024663Y005075D01*
X024731Y004901D01*
X024805Y004729D01*
X024882Y004558D01*
X024963Y004390D01*
X025049Y004224D01*
X025138Y004060D01*
X025232Y003898D01*
X025329Y003738D01*
X025430Y003581D01*
X025535Y003426D01*
X025644Y003274D01*
X025757Y003125D01*
X025873Y002978D01*
X025992Y002835D01*
X026115Y002694D01*
X026242Y002556D01*
X026372Y002422D01*
X026505Y002290D01*
X026641Y002162D01*
X026780Y002037D01*
X026922Y001916D01*
X027067Y001798D01*
X027215Y001684D01*
X027366Y001573D01*
X027519Y001466D01*
X027675Y001363D01*
X027834Y001264D01*
X027995Y001169D01*
X028158Y001077D01*
X028323Y000990D01*
X028490Y000906D01*
X028659Y000827D01*
X028830Y000752D01*
X029003Y000680D01*
X029178Y000614D01*
X029354Y000551D01*
X029532Y000493D01*
X029711Y000439D01*
X029891Y000390D01*
X030073Y000345D01*
X030255Y000304D01*
X030439Y000268D01*
X030623Y000236D01*
X030808Y000209D01*
X030993Y000186D01*
X031179Y000168D01*
X031366Y000154D01*
X031553Y000145D01*
X031740Y000141D01*
X031926Y000141D01*
X032113Y000145D01*
X032300Y000154D01*
X032487Y000168D01*
X032673Y000186D01*
X032858Y000209D01*
X033043Y000236D01*
X033227Y000268D01*
X033411Y000304D01*
X033593Y000345D01*
X033775Y000390D01*
X033955Y000439D01*
X034134Y000493D01*
X034312Y000551D01*
X034488Y000614D01*
X034663Y000680D01*
X034836Y000752D01*
X035007Y000827D01*
X035176Y000906D01*
X035343Y000990D01*
X035508Y001077D01*
X035672Y001169D01*
X035832Y001264D01*
X035991Y001363D01*
X036147Y001466D01*
X036300Y001573D01*
X036451Y001684D01*
X036599Y001798D01*
X036744Y001916D01*
X036886Y002037D01*
X037025Y002162D01*
X037161Y002290D01*
X037294Y002422D01*
X037424Y002556D01*
X037551Y002694D01*
X037674Y002835D01*
X037793Y002978D01*
X037909Y003125D01*
X038022Y003274D01*
X038131Y003426D01*
X038236Y003581D01*
X038337Y003738D01*
X038434Y003898D01*
X038528Y004060D01*
X038617Y004224D01*
X038703Y004390D01*
X038784Y004558D01*
X038861Y004729D01*
X038935Y004901D01*
X039003Y005075D01*
X039068Y005250D01*
X039128Y005427D01*
X039184Y005605D01*
X039236Y005785D01*
X039283Y005966D01*
X039326Y006148D01*
X039365Y006331D01*
X039399Y006515D01*
X039428Y006699D01*
X039453Y006885D01*
X039474Y007070D01*
X039490Y007257D01*
X039501Y007443D01*
X039508Y007630D01*
X039510Y007817D01*
X039510Y025534D01*
X039310Y025534D02*
X039310Y007817D01*
X039293Y007307D01*
X039154Y006296D01*
X038878Y005313D01*
X038472Y004377D01*
X037942Y003505D01*
X037297Y002714D01*
X036552Y002017D01*
X035718Y001429D01*
X034812Y000959D01*
X033850Y000617D01*
X032851Y000410D01*
X031833Y000340D01*
X030815Y000410D01*
X029816Y000617D01*
X028854Y000959D01*
X027948Y001429D01*
X027114Y002017D01*
X026368Y002714D01*
X025724Y003505D01*
X025194Y004377D01*
X024787Y005313D01*
X024512Y006296D01*
X024373Y007307D01*
X024356Y007817D01*
X024357Y007793D02*
X039309Y007793D01*
X039307Y007715D02*
X024359Y007715D01*
X024362Y007636D02*
X039304Y007636D01*
X039301Y007558D02*
X024365Y007558D01*
X024367Y007479D02*
X039299Y007479D01*
X039296Y007401D02*
X024370Y007401D01*
X024373Y007322D02*
X039293Y007322D01*
X039284Y007244D02*
X024382Y007244D01*
X024393Y007165D02*
X039273Y007165D01*
X039262Y007087D02*
X024403Y007087D01*
X024414Y007008D02*
X039252Y007008D01*
X039241Y006930D02*
X024425Y006930D01*
X024436Y006851D02*
X039230Y006851D01*
X039219Y006773D02*
X024447Y006773D01*
X024457Y006694D02*
X039208Y006694D01*
X039198Y006616D02*
X024468Y006616D01*
X024479Y006537D02*
X039187Y006537D01*
X039176Y006459D02*
X024490Y006459D01*
X024501Y006380D02*
X039165Y006380D01*
X039154Y006302D02*
X024511Y006302D01*
X024533Y006223D02*
X039133Y006223D01*
X039111Y006145D02*
X024555Y006145D01*
X024577Y006066D02*
X039089Y006066D01*
X039067Y005988D02*
X024598Y005988D01*
X024620Y005909D02*
X039045Y005909D01*
X039023Y005831D02*
X024642Y005831D01*
X024664Y005752D02*
X039001Y005752D01*
X038979Y005674D02*
X024686Y005674D01*
X024708Y005595D02*
X038957Y005595D01*
X038935Y005517D02*
X024730Y005517D01*
X024752Y005438D02*
X038913Y005438D01*
X038891Y005360D02*
X024774Y005360D01*
X024801Y005281D02*
X038864Y005281D01*
X038830Y005203D02*
X024835Y005203D01*
X024870Y005124D02*
X038796Y005124D01*
X038762Y005046D02*
X024904Y005046D01*
X024938Y004967D02*
X038728Y004967D01*
X038694Y004889D02*
X024972Y004889D01*
X025006Y004810D02*
X038660Y004810D01*
X038626Y004732D02*
X025040Y004732D01*
X025074Y004653D02*
X038592Y004653D01*
X038558Y004575D02*
X025108Y004575D01*
X025142Y004496D02*
X038523Y004496D01*
X038489Y004418D02*
X025176Y004418D01*
X025217Y004339D02*
X038449Y004339D01*
X038401Y004261D02*
X025265Y004261D01*
X025313Y004182D02*
X038353Y004182D01*
X038305Y004104D02*
X025360Y004104D01*
X025408Y004025D02*
X038258Y004025D01*
X038210Y003947D02*
X025456Y003947D01*
X025504Y003868D02*
X038162Y003868D01*
X038114Y003790D02*
X025551Y003790D01*
X025599Y003711D02*
X038067Y003711D01*
X038019Y003633D02*
X025647Y003633D01*
X025695Y003554D02*
X037971Y003554D01*
X037917Y003476D02*
X025748Y003476D01*
X025812Y003397D02*
X037854Y003397D01*
X037790Y003319D02*
X025876Y003319D01*
X025940Y003240D02*
X037726Y003240D01*
X037662Y003162D02*
X026004Y003162D01*
X026068Y003083D02*
X037598Y003083D01*
X037534Y003005D02*
X026132Y003005D01*
X026195Y002926D02*
X037470Y002926D01*
X037407Y002848D02*
X026259Y002848D01*
X026323Y002769D02*
X037343Y002769D01*
X037273Y002691D02*
X026393Y002691D01*
X026477Y002612D02*
X037189Y002612D01*
X037105Y002534D02*
X026561Y002534D01*
X026645Y002455D02*
X037021Y002455D01*
X036937Y002377D02*
X026729Y002377D01*
X026813Y002298D02*
X036853Y002298D01*
X036769Y002220D02*
X026897Y002220D01*
X026981Y002141D02*
X036685Y002141D01*
X036601Y002063D02*
X027065Y002063D01*
X027161Y001984D02*
X036505Y001984D01*
X036394Y001906D02*
X027272Y001906D01*
X027383Y001827D02*
X036283Y001827D01*
X036171Y001749D02*
X027494Y001749D01*
X027606Y001670D02*
X036060Y001670D01*
X035949Y001592D02*
X027717Y001592D01*
X027828Y001513D02*
X035838Y001513D01*
X035727Y001435D02*
X027939Y001435D01*
X028088Y001356D02*
X035578Y001356D01*
X035427Y001278D02*
X028239Y001278D01*
X028391Y001199D02*
X035275Y001199D01*
X035124Y001121D02*
X028542Y001121D01*
X028694Y001042D02*
X034972Y001042D01*
X034821Y000964D02*
X028845Y000964D01*
X029062Y000885D02*
X034604Y000885D01*
X034383Y000807D02*
X029283Y000807D01*
X029504Y000728D02*
X034162Y000728D01*
X033941Y000650D02*
X029724Y000650D01*
X030038Y000571D02*
X033628Y000571D01*
X033251Y000493D02*
X030415Y000493D01*
X030793Y000414D02*
X032873Y000414D01*
X032824Y007950D02*
X032747Y007950D01*
X032747Y008029D02*
X032824Y008029D01*
X032824Y008107D02*
X032747Y008107D01*
X032747Y008264D02*
X032824Y008264D01*
X032824Y008343D02*
X032747Y008343D01*
X032747Y008421D02*
X032824Y008421D01*
X033123Y008107D02*
X039310Y008107D01*
X039310Y008029D02*
X033123Y008029D01*
X033089Y007950D02*
X039310Y007950D01*
X039310Y007872D02*
X024356Y007872D01*
X024306Y007950D02*
X031037Y007950D01*
X031011Y008029D02*
X001909Y008029D01*
X001565Y008107D02*
X031011Y008107D01*
X031011Y008186D02*
X001381Y008186D01*
X001218Y008264D02*
X018272Y008264D01*
X018193Y008343D02*
X001099Y008343D01*
X001001Y008421D02*
X018115Y008421D01*
X018036Y008500D02*
X017933Y008500D01*
X017552Y008500D02*
X016933Y008500D01*
X017076Y008578D02*
X017409Y008578D01*
X017330Y008657D02*
X017154Y008657D01*
X017209Y008735D02*
X017276Y008735D01*
X017244Y008814D02*
X017241Y008814D01*
X016552Y008500D02*
X015933Y008500D01*
X016076Y008578D02*
X016409Y008578D01*
X016330Y008657D02*
X016154Y008657D01*
X016209Y008735D02*
X016276Y008735D01*
X016244Y008814D02*
X016241Y008814D01*
X015552Y008500D02*
X014933Y008500D01*
X015076Y008578D02*
X015409Y008578D01*
X015330Y008657D02*
X015154Y008657D01*
X015209Y008735D02*
X015276Y008735D01*
X015244Y008814D02*
X015241Y008814D01*
X015228Y009206D02*
X015256Y009206D01*
X015289Y009285D02*
X015196Y009285D01*
X015123Y009363D02*
X015362Y009363D01*
X015430Y009442D02*
X015045Y009442D01*
X014858Y009520D02*
X015430Y009520D01*
X015499Y009599D02*
X000351Y009599D01*
X000346Y009677D02*
X015577Y009677D01*
X015553Y009653D02*
X015553Y009653D01*
X015656Y009756D02*
X000342Y009756D01*
X000340Y009834D02*
X015734Y009834D01*
X015813Y009913D02*
X000340Y009913D01*
X000340Y009991D02*
X015891Y009991D01*
X015970Y010070D02*
X000340Y010070D01*
X000340Y010148D02*
X016048Y010148D01*
X016127Y010227D02*
X000340Y010227D01*
X000340Y010305D02*
X016205Y010305D01*
X016284Y010384D02*
X000340Y010384D01*
X000340Y010462D02*
X016362Y010462D01*
X016441Y010541D02*
X000340Y010541D01*
X000340Y010619D02*
X016519Y010619D01*
X016598Y010698D02*
X000340Y010698D01*
X000340Y010776D02*
X016676Y010776D01*
X016755Y010855D02*
X000340Y010855D01*
X000340Y010933D02*
X016833Y010933D01*
X016912Y011012D02*
X000340Y011012D01*
X000340Y011090D02*
X016990Y011090D01*
X017069Y011169D02*
X000340Y011169D01*
X000340Y011247D02*
X017147Y011247D01*
X017226Y011326D02*
X000340Y011326D01*
X000340Y011404D02*
X017304Y011404D01*
X017383Y011483D02*
X000340Y011483D01*
X000340Y011561D02*
X017430Y011561D01*
X017430Y011640D02*
X000340Y011640D01*
X000340Y011718D02*
X017430Y011718D01*
X017430Y011797D02*
X000340Y011797D01*
X000340Y011875D02*
X017430Y011875D01*
X017430Y011954D02*
X000340Y011954D01*
X000340Y012032D02*
X017430Y012032D01*
X017430Y012111D02*
X000340Y012111D01*
X000340Y012189D02*
X017430Y012189D01*
X014627Y009520D02*
X013858Y009520D01*
X014045Y009442D02*
X014440Y009442D01*
X014362Y009363D02*
X014123Y009363D01*
X014196Y009285D02*
X014289Y009285D01*
X014256Y009206D02*
X014228Y009206D01*
X013627Y009520D02*
X000367Y009520D01*
X000384Y009442D02*
X012497Y009442D01*
X012475Y009431D02*
X012410Y009383D01*
X012353Y009327D01*
X012306Y009262D01*
X012270Y009190D01*
X012245Y009114D01*
X012232Y009034D01*
X012702Y009034D01*
X012702Y009504D01*
X012623Y009492D01*
X012547Y009467D01*
X012475Y009431D01*
X012390Y009363D02*
X000402Y009363D01*
X000420Y009285D02*
X012323Y009285D01*
X012278Y009206D02*
X000438Y009206D01*
X000475Y009128D02*
X012249Y009128D01*
X012235Y009049D02*
X000513Y009049D01*
X000550Y008971D02*
X012702Y008971D01*
X012702Y009049D02*
X012782Y009049D01*
X012782Y009128D02*
X012702Y009128D01*
X012702Y009206D02*
X012782Y009206D01*
X012782Y009285D02*
X012702Y009285D01*
X012702Y009363D02*
X012782Y009363D01*
X012782Y009442D02*
X012702Y009442D01*
X012702Y009504D02*
X012702Y009504D01*
X012988Y009442D02*
X013440Y009442D01*
X013362Y009363D02*
X013095Y009363D01*
X013162Y009285D02*
X013289Y009285D01*
X013256Y009206D02*
X013207Y009206D01*
X012782Y008892D02*
X012702Y008892D01*
X012702Y008814D02*
X012782Y008814D01*
X012782Y008735D02*
X012702Y008735D01*
X012702Y008657D02*
X012782Y008657D01*
X012782Y008578D02*
X012702Y008578D01*
X012702Y008500D02*
X012782Y008500D01*
X012870Y008500D02*
X013552Y008500D01*
X013409Y008578D02*
X013037Y008578D01*
X013126Y008657D02*
X013330Y008657D01*
X013276Y008735D02*
X013183Y008735D01*
X013220Y008814D02*
X013244Y008814D01*
X012614Y008500D02*
X000902Y008500D01*
X000824Y008578D02*
X012447Y008578D01*
X012359Y008657D02*
X000761Y008657D01*
X000698Y008735D02*
X012302Y008735D01*
X012265Y008814D02*
X000636Y008814D01*
X000588Y008892D02*
X012242Y008892D01*
X012232Y008954D02*
X012232Y008954D01*
X012232Y009034D02*
X012232Y009034D01*
X013933Y008500D02*
X014552Y008500D01*
X014409Y008578D02*
X014076Y008578D01*
X014154Y008657D02*
X014330Y008657D01*
X014276Y008735D02*
X014209Y008735D01*
X014241Y008814D02*
X014244Y008814D01*
X013192Y012660D02*
X006220Y012660D01*
X006141Y012739D02*
X013114Y012739D01*
X013074Y012817D02*
X006063Y012817D01*
X005984Y012896D02*
X013050Y012896D01*
X013050Y012974D02*
X005906Y012974D01*
X005827Y013053D02*
X012983Y013053D01*
X012905Y013131D02*
X011275Y013131D01*
X011387Y013210D02*
X012826Y013210D01*
X012748Y013288D02*
X011444Y013288D01*
X011476Y013367D02*
X012669Y013367D01*
X012591Y013445D02*
X011480Y013445D01*
X011475Y013524D02*
X012512Y013524D01*
X012434Y013602D02*
X011442Y013602D01*
X011383Y013681D02*
X012355Y013681D01*
X012277Y013759D02*
X011265Y013759D01*
X011042Y013838D02*
X012198Y013838D01*
X012120Y013916D02*
X010964Y013916D01*
X010885Y013995D02*
X012041Y013995D01*
X011963Y014073D02*
X010807Y014073D01*
X010728Y014152D02*
X011884Y014152D01*
X011806Y014230D02*
X010650Y014230D01*
X010571Y014309D02*
X011727Y014309D01*
X011680Y014387D02*
X010493Y014387D01*
X010414Y014466D02*
X011680Y014466D01*
X011680Y014544D02*
X010336Y014544D01*
X010056Y014230D02*
X004650Y014230D01*
X004728Y014152D02*
X010134Y014152D01*
X010213Y014073D02*
X004807Y014073D01*
X004885Y013995D02*
X010291Y013995D01*
X010370Y013916D02*
X004964Y013916D01*
X005042Y013838D02*
X010448Y013838D01*
X010527Y013759D02*
X005121Y013759D01*
X005199Y013681D02*
X010605Y013681D01*
X010684Y013602D02*
X005278Y013602D01*
X005356Y013524D02*
X010762Y013524D01*
X010800Y013445D02*
X005435Y013445D01*
X005513Y013367D02*
X010804Y013367D01*
X010836Y013288D02*
X005592Y013288D01*
X005670Y013210D02*
X010893Y013210D01*
X011005Y013131D02*
X005749Y013131D01*
X005469Y012817D02*
X000340Y012817D01*
X000340Y012739D02*
X005547Y012739D01*
X005626Y012660D02*
X000340Y012660D01*
X000340Y012582D02*
X005704Y012582D01*
X005783Y012503D02*
X000340Y012503D01*
X000340Y012425D02*
X005861Y012425D01*
X005940Y012346D02*
X000340Y012346D01*
X000340Y012268D02*
X006018Y012268D01*
X005390Y012896D02*
X000340Y012896D01*
X000340Y012974D02*
X005312Y012974D01*
X005233Y013053D02*
X000340Y013053D01*
X000340Y013131D02*
X005155Y013131D01*
X005076Y013210D02*
X000340Y013210D01*
X000340Y013288D02*
X004998Y013288D01*
X004919Y013367D02*
X000340Y013367D01*
X000340Y013445D02*
X004841Y013445D01*
X004762Y013524D02*
X000340Y013524D01*
X000340Y013602D02*
X004684Y013602D01*
X004605Y013681D02*
X000340Y013681D01*
X000340Y013759D02*
X004527Y013759D01*
X004448Y013838D02*
X000340Y013838D01*
X000340Y013916D02*
X004370Y013916D01*
X004291Y013995D02*
X000340Y013995D01*
X000340Y014073D02*
X004213Y014073D01*
X004134Y014152D02*
X000340Y014152D01*
X000340Y014230D02*
X004056Y014230D01*
X003977Y014309D02*
X000340Y014309D01*
X000340Y014387D02*
X003899Y014387D01*
X003820Y014466D02*
X000340Y014466D01*
X000340Y014544D02*
X003742Y014544D01*
X003663Y014623D02*
X003294Y014623D01*
X003351Y014701D02*
X003585Y014701D01*
X003865Y015015D02*
X004429Y015015D01*
X004429Y014937D02*
X003943Y014937D01*
X004022Y014858D02*
X004429Y014858D01*
X004429Y014780D02*
X004100Y014780D01*
X004179Y014701D02*
X004429Y014701D01*
X004486Y014623D02*
X004257Y014623D01*
X004336Y014544D02*
X009742Y014544D01*
X009820Y014466D02*
X004414Y014466D01*
X004493Y014387D02*
X009899Y014387D01*
X009977Y014309D02*
X004571Y014309D01*
X005125Y014623D02*
X005155Y014623D01*
X005794Y014623D02*
X006525Y014623D01*
X006401Y014701D02*
X005851Y014701D01*
X005851Y015172D02*
X006388Y015172D01*
X006494Y015251D02*
X005807Y015251D01*
X005559Y015565D02*
X007465Y015565D01*
X007543Y015643D02*
X005637Y015643D01*
X005716Y015722D02*
X007622Y015722D01*
X007700Y015800D02*
X005794Y015800D01*
X005873Y015879D02*
X007779Y015879D01*
X007857Y015957D02*
X005951Y015957D01*
X006030Y016036D02*
X007936Y016036D01*
X008014Y016114D02*
X006108Y016114D01*
X006187Y016193D02*
X008093Y016193D01*
X008171Y016271D02*
X006265Y016271D01*
X006344Y016350D02*
X008250Y016350D01*
X008328Y016428D02*
X006606Y016428D01*
X006681Y016507D02*
X008407Y016507D01*
X008485Y016585D02*
X006713Y016585D01*
X006730Y016664D02*
X008550Y016664D01*
X008550Y016742D02*
X006730Y016742D01*
X006705Y016821D02*
X008575Y016821D01*
X008615Y016899D02*
X006665Y016899D01*
X006586Y016978D02*
X008694Y016978D01*
X009086Y016978D02*
X009558Y016978D01*
X009480Y017056D02*
X000340Y017056D01*
X000340Y016978D02*
X003444Y016978D01*
X003365Y016899D02*
X000340Y016899D01*
X000340Y016821D02*
X003325Y016821D01*
X003300Y016742D02*
X000340Y016742D01*
X000340Y016664D02*
X003300Y016664D01*
X003235Y016585D02*
X000340Y016585D01*
X000340Y016507D02*
X003157Y016507D01*
X003078Y016428D02*
X000340Y016428D01*
X000340Y016350D02*
X003000Y016350D01*
X002921Y016271D02*
X000340Y016271D01*
X000340Y016193D02*
X002843Y016193D01*
X002764Y016114D02*
X000340Y016114D01*
X000340Y016036D02*
X002686Y016036D01*
X002607Y015957D02*
X000340Y015957D01*
X000340Y015879D02*
X002529Y015879D01*
X002450Y015800D02*
X000340Y015800D01*
X000340Y015722D02*
X002372Y015722D01*
X002293Y015643D02*
X000340Y015643D01*
X000340Y015565D02*
X002215Y015565D01*
X002180Y015486D02*
X000340Y015486D01*
X000340Y015408D02*
X002180Y015408D01*
X002180Y015329D02*
X000340Y015329D01*
X000340Y015251D02*
X001973Y015251D01*
X001929Y015172D02*
X000340Y015172D01*
X000340Y015094D02*
X001929Y015094D01*
X001929Y015015D02*
X000340Y015015D01*
X000340Y014937D02*
X001929Y014937D01*
X001929Y014858D02*
X000340Y014858D01*
X000340Y014780D02*
X001929Y014780D01*
X001929Y014701D02*
X000340Y014701D01*
X000340Y014623D02*
X001986Y014623D01*
X002625Y014623D02*
X002655Y014623D01*
X003351Y015172D02*
X004429Y015172D01*
X004429Y015094D02*
X003786Y015094D01*
X003307Y015251D02*
X004473Y015251D01*
X004729Y015329D02*
X002600Y015329D01*
X002637Y015251D02*
X002643Y015251D01*
X002652Y015408D02*
X004808Y015408D01*
X004886Y015486D02*
X002730Y015486D01*
X002809Y015565D02*
X004965Y015565D01*
X005043Y015643D02*
X002887Y015643D01*
X002966Y015722D02*
X005122Y015722D01*
X005200Y015800D02*
X003044Y015800D01*
X003123Y015879D02*
X005279Y015879D01*
X005357Y015957D02*
X003201Y015957D01*
X003280Y016036D02*
X005436Y016036D01*
X005514Y016114D02*
X003358Y016114D01*
X003437Y016193D02*
X005593Y016193D01*
X005671Y016271D02*
X003515Y016271D01*
X003594Y016350D02*
X005750Y016350D01*
X005828Y016428D02*
X003856Y016428D01*
X003931Y016507D02*
X005907Y016507D01*
X005985Y016585D02*
X003963Y016585D01*
X003980Y016664D02*
X006050Y016664D01*
X006050Y016742D02*
X003980Y016742D01*
X003955Y016821D02*
X006075Y016821D01*
X006115Y016899D02*
X003915Y016899D01*
X003836Y016978D02*
X006194Y016978D01*
X006947Y018155D02*
X007072Y018103D01*
X007208Y018103D01*
X007333Y018155D01*
X007411Y018234D02*
X008302Y018234D01*
X008224Y018312D02*
X007454Y018312D01*
X007480Y018391D02*
X008145Y018391D01*
X008067Y018469D02*
X007480Y018469D01*
X007465Y018548D02*
X007988Y018548D01*
X007910Y018626D02*
X007432Y018626D01*
X007359Y018705D02*
X007831Y018705D01*
X007753Y018783D02*
X007350Y018783D01*
X007350Y018862D02*
X007674Y018862D01*
X007596Y018940D02*
X007350Y018940D01*
X007350Y019019D02*
X007517Y019019D01*
X007439Y019097D02*
X007350Y019097D01*
X007350Y019176D02*
X007430Y019176D01*
X007425Y019254D02*
X007430Y019254D01*
X007850Y019381D02*
X007850Y020030D01*
X007727Y020153D01*
X007600Y020280D01*
X007497Y020383D01*
X007497Y020561D01*
X007403Y020654D01*
X006877Y020654D01*
X006783Y020561D01*
X006783Y019995D01*
X006835Y019943D01*
X006783Y019891D01*
X006783Y019326D01*
X006877Y019232D01*
X006930Y019232D01*
X006930Y018714D01*
X006852Y018636D01*
X006800Y018511D01*
X006800Y018376D01*
X006852Y018251D01*
X006947Y018155D01*
X004833Y018155D01*
X004928Y018251D01*
X004980Y018376D01*
X004980Y018511D01*
X004928Y018636D01*
X004850Y018714D01*
X004850Y019232D01*
X004903Y019232D01*
X004997Y019326D01*
X004997Y019884D01*
X005072Y019853D01*
X005208Y019853D01*
X005333Y019905D01*
X005428Y020001D01*
X005480Y020126D01*
X005480Y020261D01*
X005428Y020386D01*
X005333Y020481D01*
X005208Y020533D01*
X005072Y020533D01*
X004997Y020502D01*
X004997Y020561D01*
X004903Y020654D01*
X004377Y020654D01*
X004350Y020627D01*
X004350Y021259D01*
X004377Y021232D01*
X004903Y021232D01*
X004997Y021326D01*
X004997Y021891D01*
X004945Y021943D01*
X004985Y021983D01*
X006227Y021983D01*
X006783Y022539D01*
X006783Y021995D01*
X006835Y021943D01*
X006783Y021891D01*
X006783Y021326D01*
X006877Y021232D01*
X007403Y021232D01*
X007497Y021326D01*
X007497Y021483D01*
X007803Y021483D01*
X007930Y021356D01*
X007930Y019464D01*
X007852Y019386D01*
X007850Y019381D01*
X007850Y019411D02*
X007877Y019411D01*
X007850Y019490D02*
X007930Y019490D01*
X007930Y019568D02*
X007850Y019568D01*
X007850Y019647D02*
X007930Y019647D01*
X007930Y019725D02*
X007850Y019725D01*
X007850Y019804D02*
X007930Y019804D01*
X007930Y019882D02*
X007850Y019882D01*
X007850Y019961D02*
X007930Y019961D01*
X007930Y020039D02*
X007841Y020039D01*
X007762Y020118D02*
X007930Y020118D01*
X007930Y020196D02*
X007684Y020196D01*
X007605Y020275D02*
X007930Y020275D01*
X007930Y020353D02*
X007527Y020353D01*
X007497Y020432D02*
X007930Y020432D01*
X007930Y020510D02*
X007497Y020510D01*
X007469Y020589D02*
X007930Y020589D01*
X007930Y020667D02*
X004350Y020667D01*
X004350Y020746D02*
X007930Y020746D01*
X007930Y020824D02*
X004350Y020824D01*
X004350Y020903D02*
X007930Y020903D01*
X007930Y020981D02*
X004350Y020981D01*
X004350Y021060D02*
X007930Y021060D01*
X007930Y021138D02*
X004350Y021138D01*
X004350Y021217D02*
X007930Y021217D01*
X007930Y021295D02*
X007466Y021295D01*
X007497Y021374D02*
X007912Y021374D01*
X007834Y021452D02*
X007497Y021452D01*
X006814Y021295D02*
X004966Y021295D01*
X004997Y021374D02*
X006783Y021374D01*
X006783Y021452D02*
X004997Y021452D01*
X004997Y021531D02*
X006783Y021531D01*
X006783Y021609D02*
X004997Y021609D01*
X004997Y021688D02*
X006783Y021688D01*
X006783Y021766D02*
X004997Y021766D01*
X004997Y021845D02*
X006783Y021845D01*
X006815Y021923D02*
X004965Y021923D01*
X004335Y021943D02*
X004283Y021891D01*
X004283Y021883D01*
X004180Y021780D01*
X004053Y021653D01*
X003930Y021530D01*
X003930Y020464D01*
X003852Y020386D01*
X003800Y020261D01*
X003800Y020126D01*
X003852Y020001D01*
X003947Y019905D01*
X004072Y019853D01*
X004208Y019853D01*
X004283Y019884D01*
X004283Y019326D01*
X004377Y019232D01*
X004430Y019232D01*
X004430Y018714D01*
X004352Y018636D01*
X004300Y018511D01*
X004300Y018376D01*
X004352Y018251D01*
X004447Y018155D01*
X002333Y018155D01*
X002428Y018251D01*
X002480Y018376D01*
X002480Y018511D01*
X002428Y018636D01*
X002350Y018714D01*
X002350Y019232D01*
X002403Y019232D01*
X002497Y019326D01*
X002497Y019884D01*
X002572Y019853D01*
X002708Y019853D01*
X002833Y019905D01*
X002928Y020001D01*
X002930Y020005D01*
X002930Y019214D01*
X002852Y019136D01*
X002800Y019011D01*
X002800Y018876D01*
X002852Y018751D01*
X002947Y018655D01*
X003072Y018603D01*
X003208Y018603D01*
X003333Y018655D01*
X003428Y018751D01*
X003480Y018876D01*
X003480Y019011D01*
X003428Y019136D01*
X003350Y019214D01*
X003350Y021530D01*
X003227Y021653D01*
X003100Y021780D01*
X002977Y021903D01*
X002485Y021903D01*
X002445Y021943D01*
X002485Y021983D01*
X003727Y021983D01*
X004283Y022539D01*
X004283Y021995D01*
X004335Y021943D01*
X004315Y021923D02*
X002465Y021923D01*
X003035Y021845D02*
X004245Y021845D01*
X004180Y021780D02*
X004180Y021780D01*
X004166Y021766D02*
X003114Y021766D01*
X003192Y021688D02*
X004088Y021688D01*
X004053Y021653D02*
X004053Y021653D01*
X004009Y021609D02*
X003271Y021609D01*
X003349Y021531D02*
X003931Y021531D01*
X003930Y021452D02*
X003350Y021452D01*
X003350Y021374D02*
X003930Y021374D01*
X003930Y021295D02*
X003350Y021295D01*
X003350Y021217D02*
X003930Y021217D01*
X003930Y021138D02*
X003350Y021138D01*
X003350Y021060D02*
X003930Y021060D01*
X003930Y020981D02*
X003350Y020981D01*
X003350Y020903D02*
X003930Y020903D01*
X003930Y020824D02*
X003350Y020824D01*
X003350Y020746D02*
X003930Y020746D01*
X003930Y020667D02*
X003350Y020667D01*
X003350Y020589D02*
X003930Y020589D01*
X003930Y020510D02*
X003350Y020510D01*
X003350Y020432D02*
X003898Y020432D01*
X003838Y020353D02*
X003350Y020353D01*
X003350Y020275D02*
X003806Y020275D01*
X003800Y020196D02*
X003350Y020196D01*
X003350Y020118D02*
X003803Y020118D01*
X003836Y020039D02*
X003350Y020039D01*
X003350Y019961D02*
X003892Y019961D01*
X004002Y019882D02*
X003350Y019882D01*
X003350Y019804D02*
X004283Y019804D01*
X004278Y019882D02*
X004283Y019882D01*
X004283Y019725D02*
X003350Y019725D01*
X003350Y019647D02*
X004283Y019647D01*
X004283Y019568D02*
X003350Y019568D01*
X003350Y019490D02*
X004283Y019490D01*
X004283Y019411D02*
X003350Y019411D01*
X003350Y019333D02*
X004283Y019333D01*
X004355Y019254D02*
X003350Y019254D01*
X003388Y019176D02*
X004430Y019176D01*
X004430Y019097D02*
X003444Y019097D01*
X003477Y019019D02*
X004430Y019019D01*
X004430Y018940D02*
X003480Y018940D01*
X003474Y018862D02*
X004430Y018862D01*
X004430Y018783D02*
X003442Y018783D01*
X003382Y018705D02*
X004421Y018705D01*
X004348Y018626D02*
X003263Y018626D01*
X003017Y018626D02*
X002432Y018626D01*
X002465Y018548D02*
X004315Y018548D01*
X004300Y018469D02*
X002480Y018469D01*
X002480Y018391D02*
X004300Y018391D01*
X004326Y018312D02*
X002454Y018312D01*
X002411Y018234D02*
X004369Y018234D01*
X004447Y018155D02*
X004572Y018103D01*
X004708Y018103D01*
X004833Y018155D01*
X004911Y018234D02*
X006869Y018234D01*
X006826Y018312D02*
X004954Y018312D01*
X004980Y018391D02*
X006800Y018391D01*
X006800Y018469D02*
X004980Y018469D01*
X004965Y018548D02*
X006815Y018548D01*
X006848Y018626D02*
X004932Y018626D01*
X004859Y018705D02*
X006921Y018705D01*
X006930Y018783D02*
X004850Y018783D01*
X004850Y018862D02*
X006930Y018862D01*
X006930Y018940D02*
X004850Y018940D01*
X004850Y019019D02*
X006930Y019019D01*
X006930Y019097D02*
X004850Y019097D01*
X004850Y019176D02*
X006930Y019176D01*
X006855Y019254D02*
X004925Y019254D01*
X004997Y019333D02*
X006783Y019333D01*
X006783Y019411D02*
X004997Y019411D01*
X004997Y019490D02*
X006783Y019490D01*
X006783Y019568D02*
X004997Y019568D01*
X004997Y019647D02*
X006783Y019647D01*
X006783Y019725D02*
X004997Y019725D01*
X004997Y019804D02*
X006783Y019804D01*
X006783Y019882D02*
X005278Y019882D01*
X005388Y019961D02*
X006817Y019961D01*
X006783Y020039D02*
X005444Y020039D01*
X005477Y020118D02*
X006783Y020118D01*
X006783Y020196D02*
X005480Y020196D01*
X005474Y020275D02*
X006783Y020275D01*
X006783Y020353D02*
X005442Y020353D01*
X005382Y020432D02*
X006783Y020432D01*
X006783Y020510D02*
X005263Y020510D01*
X005017Y020510D02*
X004997Y020510D01*
X004969Y020589D02*
X006811Y020589D01*
X006783Y022002D02*
X006246Y022002D01*
X006324Y022080D02*
X006783Y022080D01*
X006783Y022159D02*
X006403Y022159D01*
X006481Y022237D02*
X006783Y022237D01*
X006783Y022316D02*
X006560Y022316D01*
X006638Y022394D02*
X006783Y022394D01*
X006783Y022473D02*
X006717Y022473D01*
X004879Y023729D02*
X003773Y023729D01*
X003852Y023807D02*
X004957Y023807D01*
X004930Y023780D02*
X004930Y023780D01*
X005036Y023886D02*
X003930Y023886D01*
X003695Y023650D02*
X004800Y023650D01*
X004722Y023572D02*
X003585Y023572D01*
X003449Y023493D02*
X004643Y023493D01*
X004565Y023415D02*
X003313Y023415D01*
X003057Y023336D02*
X004486Y023336D01*
X004408Y023258D02*
X000340Y023258D01*
X000340Y023336D02*
X002223Y023336D01*
X001967Y023415D02*
X000340Y023415D01*
X000340Y023493D02*
X001831Y023493D01*
X001695Y023572D02*
X000340Y023572D01*
X000340Y023650D02*
X001585Y023650D01*
X001507Y023729D02*
X000340Y023729D01*
X000340Y023807D02*
X001428Y023807D01*
X001350Y023886D02*
X000340Y023886D01*
X000340Y023964D02*
X001288Y023964D01*
X001243Y024043D02*
X000340Y024043D01*
X000340Y024121D02*
X001198Y024121D01*
X001152Y024200D02*
X000340Y024200D01*
X000340Y024278D02*
X001107Y024278D01*
X001079Y024357D02*
X000340Y024357D01*
X000340Y024435D02*
X001058Y024435D01*
X001037Y024514D02*
X000340Y024514D01*
X000340Y024592D02*
X001015Y024592D01*
X000994Y024671D02*
X000340Y024671D01*
X000340Y024749D02*
X000980Y024749D01*
X000980Y024828D02*
X000340Y024828D01*
X000340Y024906D02*
X000980Y024906D01*
X000980Y024985D02*
X000340Y024985D01*
X000340Y025063D02*
X000980Y025063D01*
X000980Y025142D02*
X000340Y025142D01*
X000340Y025220D02*
X000996Y025220D01*
X001017Y025299D02*
X000340Y025299D01*
X000340Y025377D02*
X001038Y025377D01*
X001059Y025456D02*
X000340Y025456D01*
X000340Y025534D02*
X000351Y025732D01*
X000378Y025848D02*
X001246Y025848D01*
X001291Y025927D02*
X000396Y025927D01*
X000414Y026005D02*
X001354Y026005D01*
X001433Y026084D02*
X000431Y026084D01*
X000461Y026162D02*
X001511Y026162D01*
X001590Y026241D02*
X000498Y026241D01*
X000536Y026319D02*
X001703Y026319D01*
X001839Y026398D02*
X000574Y026398D01*
X000612Y026476D02*
X001975Y026476D01*
X002241Y026555D02*
X000675Y026555D01*
X000140Y025534D02*
X000140Y009786D01*
X000142Y009700D01*
X000147Y009614D01*
X000157Y009529D01*
X000170Y009444D01*
X000187Y009360D01*
X000207Y009276D01*
X000231Y009194D01*
X000259Y009113D01*
X000290Y009032D01*
X000324Y008954D01*
X000362Y008877D01*
X000404Y008802D01*
X000448Y008728D01*
X000496Y008657D01*
X000547Y008587D01*
X000601Y008520D01*
X000657Y008456D01*
X000717Y008394D01*
X000779Y008334D01*
X000843Y008278D01*
X000910Y008224D01*
X000980Y008173D01*
X001051Y008125D01*
X001124Y008081D01*
X001200Y008039D01*
X001277Y008001D01*
X001355Y007967D01*
X001436Y007936D01*
X001517Y007908D01*
X001599Y007884D01*
X001683Y007864D01*
X001767Y007847D01*
X001852Y007834D01*
X001937Y007824D01*
X002023Y007819D01*
X002109Y007817D01*
X006755Y014623D02*
X006986Y014623D01*
X006929Y014701D02*
X006879Y014701D01*
X006892Y015172D02*
X006929Y015172D01*
X006973Y015251D02*
X006786Y015251D01*
X007229Y015329D02*
X005323Y015329D01*
X005402Y015408D02*
X007308Y015408D01*
X007386Y015486D02*
X005480Y015486D01*
X007625Y014623D02*
X007655Y014623D01*
X008294Y014623D02*
X009025Y014623D01*
X008901Y014701D02*
X008351Y014701D01*
X008351Y015172D02*
X008888Y015172D01*
X008994Y015251D02*
X008307Y015251D01*
X008059Y015565D02*
X010180Y015565D01*
X010180Y015643D02*
X008137Y015643D01*
X008216Y015722D02*
X010131Y015722D01*
X010081Y015800D02*
X008294Y015800D01*
X008373Y015879D02*
X010050Y015879D01*
X010050Y015957D02*
X008451Y015957D01*
X008530Y016036D02*
X010060Y016036D01*
X010093Y016114D02*
X008608Y016114D01*
X008687Y016193D02*
X010159Y016193D01*
X010265Y016271D02*
X008765Y016271D01*
X008844Y016350D02*
X010186Y016350D01*
X010108Y016428D02*
X009106Y016428D01*
X009181Y016507D02*
X010029Y016507D01*
X009951Y016585D02*
X009213Y016585D01*
X009230Y016664D02*
X009872Y016664D01*
X009794Y016742D02*
X009230Y016742D01*
X009205Y016821D02*
X009715Y016821D01*
X009637Y016899D02*
X009165Y016899D01*
X009401Y017135D02*
X000340Y017135D01*
X000340Y017213D02*
X009323Y017213D01*
X009244Y017292D02*
X000340Y017292D01*
X000340Y017370D02*
X009166Y017370D01*
X009087Y017449D02*
X000340Y017449D01*
X000340Y017527D02*
X009009Y017527D01*
X008930Y017606D02*
X000340Y017606D01*
X000340Y017684D02*
X008852Y017684D01*
X008773Y017763D02*
X000340Y017763D01*
X000340Y017841D02*
X008695Y017841D01*
X008616Y017920D02*
X000340Y017920D01*
X000340Y017998D02*
X008538Y017998D01*
X010699Y015800D02*
X010736Y015800D01*
X010814Y015722D02*
X010649Y015722D01*
X010600Y015643D02*
X010893Y015643D01*
X010971Y015565D02*
X010600Y015565D01*
X010600Y015486D02*
X011050Y015486D01*
X011050Y015408D02*
X010600Y015408D01*
X010600Y015329D02*
X011069Y015329D01*
X011102Y015251D02*
X011197Y015155D01*
X010851Y015094D02*
X011680Y015094D01*
X011680Y015172D02*
X011600Y015172D01*
X011680Y015015D02*
X010851Y015015D01*
X010851Y014937D02*
X011680Y014937D01*
X011680Y014858D02*
X010851Y014858D01*
X010851Y014780D02*
X011680Y014780D01*
X011680Y014701D02*
X010851Y014701D01*
X010794Y014623D02*
X011680Y014623D01*
X010180Y015329D02*
X007823Y015329D01*
X007902Y015408D02*
X010180Y015408D01*
X010180Y015486D02*
X007980Y015486D01*
X009286Y015251D02*
X009473Y015251D01*
X009429Y015172D02*
X009392Y015172D01*
X009379Y014701D02*
X009429Y014701D01*
X009486Y014623D02*
X009255Y014623D01*
X010137Y015251D02*
X010143Y015251D01*
X005002Y019882D02*
X004997Y019882D01*
X002930Y019882D02*
X002778Y019882D01*
X002888Y019961D02*
X002930Y019961D01*
X002930Y019804D02*
X002497Y019804D01*
X002497Y019882D02*
X002502Y019882D01*
X002497Y019725D02*
X002930Y019725D01*
X002930Y019647D02*
X002497Y019647D01*
X002497Y019568D02*
X002930Y019568D01*
X002930Y019490D02*
X002497Y019490D01*
X002497Y019411D02*
X002930Y019411D01*
X002930Y019333D02*
X002497Y019333D01*
X002425Y019254D02*
X002930Y019254D01*
X002892Y019176D02*
X002350Y019176D01*
X002350Y019097D02*
X002836Y019097D01*
X002803Y019019D02*
X002350Y019019D01*
X002350Y018940D02*
X002800Y018940D01*
X002806Y018862D02*
X002350Y018862D01*
X002350Y018783D02*
X002838Y018783D01*
X002898Y018705D02*
X002359Y018705D01*
X001930Y018783D02*
X000340Y018783D01*
X000340Y018705D02*
X001921Y018705D01*
X001848Y018626D02*
X000340Y018626D01*
X000340Y018548D02*
X001815Y018548D01*
X001800Y018469D02*
X000340Y018469D01*
X000340Y018391D02*
X001800Y018391D01*
X001826Y018312D02*
X000340Y018312D01*
X000340Y018234D02*
X001869Y018234D01*
X001947Y018155D02*
X002072Y018103D01*
X002208Y018103D01*
X002333Y018155D01*
X001930Y018862D02*
X000340Y018862D01*
X000340Y018940D02*
X001930Y018940D01*
X001930Y019019D02*
X000340Y019019D01*
X000340Y019097D02*
X001930Y019097D01*
X001930Y019176D02*
X000340Y019176D01*
X000340Y019254D02*
X001855Y019254D01*
X001783Y019333D02*
X000340Y019333D01*
X000340Y019411D02*
X001783Y019411D01*
X001783Y019490D02*
X000340Y019490D01*
X000340Y019568D02*
X001783Y019568D01*
X001783Y019647D02*
X000340Y019647D01*
X000340Y019725D02*
X001783Y019725D01*
X001783Y019804D02*
X000340Y019804D01*
X000340Y019882D02*
X001783Y019882D01*
X001817Y019961D02*
X000340Y019961D01*
X000340Y020039D02*
X001783Y020039D01*
X001783Y020118D02*
X000340Y020118D01*
X000340Y020196D02*
X001783Y020196D01*
X001783Y020275D02*
X000340Y020275D01*
X000340Y020353D02*
X001783Y020353D01*
X001783Y020432D02*
X000340Y020432D01*
X000340Y020510D02*
X001783Y020510D01*
X001811Y020589D02*
X000340Y020589D01*
X000340Y020667D02*
X002930Y020667D01*
X002930Y020589D02*
X002469Y020589D01*
X002497Y020510D02*
X002517Y020510D01*
X002763Y020510D02*
X002930Y020510D01*
X002930Y020432D02*
X002882Y020432D01*
X002930Y020746D02*
X000340Y020746D01*
X000340Y020824D02*
X002930Y020824D01*
X002930Y020903D02*
X000340Y020903D01*
X000340Y020981D02*
X002930Y020981D01*
X002930Y021060D02*
X000340Y021060D01*
X000340Y021138D02*
X002930Y021138D01*
X002930Y021217D02*
X000340Y021217D01*
X000340Y021295D02*
X001814Y021295D01*
X001783Y021374D02*
X000340Y021374D01*
X000340Y021452D02*
X001783Y021452D01*
X001783Y021531D02*
X000340Y021531D01*
X000340Y021609D02*
X001783Y021609D01*
X001783Y021688D02*
X000340Y021688D01*
X000340Y021766D02*
X001783Y021766D01*
X001783Y021845D02*
X000340Y021845D01*
X000340Y021923D02*
X001815Y021923D01*
X001783Y022002D02*
X000340Y022002D01*
X000340Y022080D02*
X001783Y022080D01*
X001783Y022159D02*
X000340Y022159D01*
X000340Y022237D02*
X001783Y022237D01*
X001783Y022316D02*
X000340Y022316D01*
X000340Y022394D02*
X001783Y022394D01*
X001783Y022473D02*
X000340Y022473D01*
X000340Y022551D02*
X001783Y022551D01*
X001852Y022630D02*
X000340Y022630D01*
X000340Y022708D02*
X003858Y022708D01*
X003780Y022630D02*
X002428Y022630D01*
X002497Y022551D02*
X003701Y022551D01*
X003623Y022473D02*
X002497Y022473D01*
X003746Y022002D02*
X004283Y022002D01*
X004283Y022080D02*
X003824Y022080D01*
X003903Y022159D02*
X004283Y022159D01*
X004283Y022237D02*
X003981Y022237D01*
X004060Y022316D02*
X004283Y022316D01*
X004283Y022394D02*
X004138Y022394D01*
X004217Y022473D02*
X004283Y022473D01*
X003937Y022787D02*
X000340Y022787D01*
X000340Y022865D02*
X004015Y022865D01*
X004094Y022944D02*
X000340Y022944D01*
X000340Y023022D02*
X004172Y023022D01*
X004251Y023101D02*
X000340Y023101D01*
X000340Y023179D02*
X004329Y023179D01*
X002834Y021452D02*
X002497Y021452D01*
X002497Y021374D02*
X002912Y021374D01*
X002930Y021295D02*
X002466Y021295D01*
X000140Y025534D02*
X000142Y025620D01*
X000147Y025706D01*
X000157Y025791D01*
X000170Y025876D01*
X000187Y025960D01*
X000207Y026044D01*
X000231Y026126D01*
X000259Y026207D01*
X000290Y026288D01*
X000324Y026366D01*
X000362Y026443D01*
X000404Y026519D01*
X000448Y026592D01*
X000496Y026663D01*
X000547Y026733D01*
X000601Y026800D01*
X000657Y026864D01*
X000717Y026926D01*
X000779Y026986D01*
X000843Y027042D01*
X000910Y027096D01*
X000980Y027147D01*
X001051Y027195D01*
X001125Y027239D01*
X001200Y027281D01*
X001277Y027319D01*
X001355Y027353D01*
X001436Y027384D01*
X001517Y027412D01*
X001599Y027436D01*
X001683Y027456D01*
X001767Y027473D01*
X001852Y027486D01*
X001937Y027496D01*
X002023Y027501D01*
X002109Y027503D01*
X018779Y023101D02*
X028751Y023101D01*
X028672Y023022D02*
X018858Y023022D01*
X018936Y022944D02*
X028594Y022944D01*
X028515Y022865D02*
X019015Y022865D01*
X018977Y022903D02*
X018977Y022903D01*
X019093Y022787D02*
X028437Y022787D01*
X028358Y022708D02*
X019100Y022708D01*
X019100Y022630D02*
X028280Y022630D01*
X028201Y022551D02*
X019100Y022551D01*
X019100Y022473D02*
X028123Y022473D01*
X028044Y022394D02*
X019100Y022394D01*
X019100Y022316D02*
X027966Y022316D01*
X027930Y022237D02*
X019100Y022237D01*
X019100Y022159D02*
X027930Y022159D01*
X027930Y022080D02*
X019100Y022080D01*
X019100Y022002D02*
X027930Y022002D01*
X027930Y021923D02*
X019100Y021923D01*
X019100Y021845D02*
X027930Y021845D01*
X027930Y021766D02*
X019100Y021766D01*
X019100Y021688D02*
X027930Y021688D01*
X027930Y021609D02*
X019100Y021609D01*
X019100Y021531D02*
X027930Y021531D01*
X027930Y021452D02*
X019100Y021452D01*
X019100Y021374D02*
X027930Y021374D01*
X027930Y021295D02*
X019100Y021295D01*
X019100Y021217D02*
X027930Y021217D01*
X027930Y021138D02*
X019100Y021138D01*
X019100Y021060D02*
X027930Y021060D01*
X027930Y020981D02*
X019100Y020981D01*
X019100Y020903D02*
X027930Y020903D01*
X027930Y020824D02*
X019100Y020824D01*
X019100Y020746D02*
X027930Y020746D01*
X027930Y020667D02*
X019100Y020667D01*
X019100Y020589D02*
X027930Y020589D01*
X027930Y020510D02*
X019100Y020510D01*
X019100Y020432D02*
X027930Y020432D01*
X027930Y020353D02*
X019100Y020353D01*
X019100Y020275D02*
X027930Y020275D01*
X027930Y020196D02*
X019100Y020196D01*
X019100Y020118D02*
X027930Y020118D01*
X027930Y020039D02*
X027607Y020039D01*
X027635Y020025D02*
X027562Y020062D01*
X027483Y020088D01*
X027402Y020101D01*
X027400Y020101D01*
X027400Y019617D01*
X027320Y019617D01*
X027320Y019537D01*
X026837Y019537D01*
X026837Y019536D01*
X026850Y019454D01*
X026875Y019376D01*
X026912Y019302D01*
X026961Y019236D01*
X027019Y019177D01*
X027086Y019129D01*
X027159Y019092D01*
X027238Y019066D01*
X027319Y019053D01*
X027320Y019053D01*
X027320Y019537D01*
X027400Y019537D01*
X027400Y019053D01*
X027402Y019053D01*
X027483Y019066D01*
X027562Y019092D01*
X027635Y019129D01*
X027702Y019177D01*
X027760Y019236D01*
X027809Y019302D01*
X027846Y019376D01*
X027871Y019454D01*
X027884Y019536D01*
X027884Y019537D01*
X027400Y019537D01*
X027400Y019617D01*
X027884Y019617D01*
X027884Y019618D01*
X027871Y019700D01*
X027846Y019778D01*
X027809Y019852D01*
X027760Y019918D01*
X027702Y019977D01*
X027635Y020025D01*
X027718Y019961D02*
X027930Y019961D01*
X027930Y019882D02*
X027786Y019882D01*
X027833Y019804D02*
X027930Y019804D01*
X027930Y019725D02*
X027863Y019725D01*
X027880Y019647D02*
X027930Y019647D01*
X027930Y019568D02*
X027400Y019568D01*
X027400Y019490D02*
X027320Y019490D01*
X027320Y019568D02*
X019312Y019568D01*
X019390Y019490D02*
X026844Y019490D01*
X026864Y019411D02*
X019469Y019411D01*
X019547Y019333D02*
X026897Y019333D01*
X026947Y019254D02*
X019626Y019254D01*
X019704Y019176D02*
X027022Y019176D01*
X027148Y019097D02*
X019783Y019097D01*
X019861Y019019D02*
X027930Y019019D01*
X027930Y019097D02*
X027573Y019097D01*
X027699Y019176D02*
X027930Y019176D01*
X027930Y019254D02*
X027773Y019254D01*
X027824Y019333D02*
X027930Y019333D01*
X027930Y019411D02*
X027857Y019411D01*
X027877Y019490D02*
X027930Y019490D01*
X027400Y019411D02*
X027320Y019411D01*
X027320Y019333D02*
X027400Y019333D01*
X027400Y019254D02*
X027320Y019254D01*
X027320Y019176D02*
X027400Y019176D01*
X027400Y019097D02*
X027320Y019097D01*
X027320Y019617D02*
X026837Y019617D01*
X026837Y019618D01*
X026850Y019700D01*
X026875Y019778D01*
X026912Y019852D01*
X026961Y019918D01*
X027019Y019977D01*
X027086Y020025D01*
X027159Y020062D01*
X027238Y020088D01*
X027319Y020101D01*
X027320Y020101D01*
X027320Y019617D01*
X027320Y019647D02*
X027400Y019647D01*
X027400Y019725D02*
X027320Y019725D01*
X027320Y019804D02*
X027400Y019804D01*
X027400Y019882D02*
X027320Y019882D01*
X027320Y019961D02*
X027400Y019961D01*
X027400Y020039D02*
X027320Y020039D01*
X027114Y020039D02*
X019100Y020039D01*
X019100Y019961D02*
X027003Y019961D01*
X026935Y019882D02*
X019100Y019882D01*
X019100Y019804D02*
X026888Y019804D01*
X026858Y019725D02*
X019155Y019725D01*
X019233Y019647D02*
X026841Y019647D01*
X027930Y018940D02*
X019940Y018940D01*
X020018Y018862D02*
X027930Y018862D01*
X027930Y018783D02*
X020097Y018783D01*
X020175Y018705D02*
X027930Y018705D01*
X027930Y018626D02*
X020254Y018626D01*
X020332Y018548D02*
X027930Y018548D01*
X027869Y018469D02*
X020411Y018469D01*
X020489Y018391D02*
X027791Y018391D01*
X027712Y018312D02*
X020568Y018312D01*
X020646Y018234D02*
X027634Y018234D01*
X027555Y018155D02*
X020725Y018155D01*
X020803Y018077D02*
X027477Y018077D01*
X027398Y017998D02*
X020850Y017998D01*
X020850Y017920D02*
X027320Y017920D01*
X027241Y017841D02*
X020850Y017841D01*
X020850Y017763D02*
X027163Y017763D01*
X027084Y017684D02*
X020850Y017684D01*
X020850Y017606D02*
X027006Y017606D01*
X026927Y017527D02*
X020850Y017527D01*
X020850Y017449D02*
X026849Y017449D01*
X026770Y017370D02*
X020850Y017370D01*
X020850Y017292D02*
X026692Y017292D01*
X026613Y017213D02*
X020850Y017213D01*
X020850Y017135D02*
X026535Y017135D01*
X026456Y017056D02*
X020850Y017056D01*
X020850Y016978D02*
X026378Y016978D01*
X026299Y016899D02*
X020850Y016899D01*
X020850Y016821D02*
X026221Y016821D01*
X026142Y016742D02*
X020850Y016742D01*
X020850Y016664D02*
X026064Y016664D01*
X025985Y016585D02*
X020850Y016585D01*
X020850Y016507D02*
X025907Y016507D01*
X025828Y016428D02*
X020850Y016428D01*
X020850Y016350D02*
X025750Y016350D01*
X025671Y016271D02*
X020850Y016271D01*
X020850Y016193D02*
X025593Y016193D01*
X025514Y016114D02*
X020850Y016114D01*
X020850Y016036D02*
X025436Y016036D01*
X025357Y015957D02*
X020850Y015957D01*
X020850Y015879D02*
X025279Y015879D01*
X025200Y015800D02*
X020850Y015800D01*
X020850Y015722D02*
X025122Y015722D01*
X025043Y015643D02*
X020850Y015643D01*
X020850Y015565D02*
X024965Y015565D01*
X024886Y015486D02*
X023864Y015486D01*
X024047Y015408D02*
X024808Y015408D01*
X024729Y015329D02*
X024126Y015329D01*
X024197Y015251D02*
X024651Y015251D01*
X024572Y015172D02*
X024229Y015172D01*
X024262Y015094D02*
X024494Y015094D01*
X024415Y015015D02*
X024272Y015015D01*
X024272Y014937D02*
X024337Y014937D01*
X023621Y015486D02*
X022864Y015486D01*
X023047Y015408D02*
X023438Y015408D01*
X023359Y015329D02*
X023126Y015329D01*
X023197Y015251D02*
X023288Y015251D01*
X023255Y015172D02*
X023229Y015172D01*
X022621Y015486D02*
X021864Y015486D01*
X022047Y015408D02*
X022438Y015408D01*
X022359Y015329D02*
X022126Y015329D01*
X022197Y015251D02*
X022288Y015251D01*
X022255Y015172D02*
X022229Y015172D01*
X021621Y015486D02*
X020864Y015486D01*
X021047Y015408D02*
X021438Y015408D01*
X021359Y015329D02*
X021126Y015329D01*
X021197Y015251D02*
X021288Y015251D01*
X021255Y015172D02*
X021229Y015172D01*
X024415Y008421D02*
X031011Y008421D01*
X031011Y008343D02*
X024337Y008343D01*
X024258Y008264D02*
X031011Y008264D01*
X031744Y008500D02*
X039310Y008500D01*
X039310Y008578D02*
X031822Y008578D01*
X031901Y008657D02*
X039310Y008657D01*
X039310Y008735D02*
X031979Y008735D01*
X032058Y008814D02*
X032457Y008814D01*
X032429Y008892D02*
X032136Y008892D01*
X032215Y008971D02*
X032429Y008971D01*
X032429Y009049D02*
X032293Y009049D01*
X032372Y009128D02*
X032429Y009128D01*
X032397Y020667D02*
X032429Y020667D01*
X032468Y020746D02*
X032298Y020746D01*
X031982Y020746D02*
X031850Y020746D01*
X031850Y020667D02*
X031883Y020667D01*
X037813Y023415D02*
X039310Y023415D01*
X039310Y023493D02*
X037949Y023493D01*
X038085Y023572D02*
X039310Y023572D01*
X039310Y023650D02*
X038195Y023650D01*
X038273Y023729D02*
X039310Y023729D01*
X039310Y023807D02*
X038352Y023807D01*
X038430Y023886D02*
X039310Y023886D01*
X039310Y023964D02*
X038492Y023964D01*
X038537Y024043D02*
X039310Y024043D01*
X039310Y024121D02*
X038582Y024121D01*
X038628Y024200D02*
X039310Y024200D01*
X039310Y024278D02*
X038673Y024278D01*
X038701Y024357D02*
X039310Y024357D01*
X039310Y024435D02*
X038722Y024435D01*
X038743Y024514D02*
X039310Y024514D01*
X039310Y024592D02*
X038765Y024592D01*
X038786Y024671D02*
X039310Y024671D01*
X039310Y024749D02*
X038800Y024749D01*
X038800Y024828D02*
X039310Y024828D01*
X039310Y024906D02*
X038800Y024906D01*
X038800Y024985D02*
X039310Y024985D01*
X039310Y025063D02*
X038800Y025063D01*
X038800Y025142D02*
X039310Y025142D01*
X039310Y025220D02*
X038784Y025220D01*
X038763Y025299D02*
X039310Y025299D01*
X039310Y025377D02*
X038742Y025377D01*
X038721Y025456D02*
X039310Y025456D01*
X039511Y025534D02*
X039509Y025620D01*
X039504Y025706D01*
X039494Y025791D01*
X039481Y025876D01*
X039464Y025960D01*
X039444Y026044D01*
X039420Y026126D01*
X039392Y026207D01*
X039361Y026288D01*
X039327Y026366D01*
X039289Y026443D01*
X039247Y026519D01*
X039203Y026592D01*
X039155Y026663D01*
X039104Y026733D01*
X039050Y026800D01*
X038994Y026864D01*
X038934Y026926D01*
X038872Y026986D01*
X038808Y027042D01*
X038741Y027096D01*
X038671Y027147D01*
X038600Y027195D01*
X038527Y027239D01*
X038451Y027281D01*
X038374Y027319D01*
X038296Y027353D01*
X038215Y027384D01*
X038134Y027412D01*
X038052Y027436D01*
X037968Y027456D01*
X037884Y027473D01*
X037799Y027486D01*
X037714Y027496D01*
X037628Y027501D01*
X037542Y027503D01*
D11*
X023742Y014963D03*
X022742Y014963D03*
X021742Y014963D03*
X020742Y014963D03*
X019742Y014963D03*
X018742Y014963D03*
X017742Y014963D03*
X016742Y014963D03*
X015742Y014963D03*
X014742Y014963D03*
X013742Y014963D03*
X012742Y014963D03*
X012742Y008994D03*
X013742Y008994D03*
X014742Y008994D03*
X015742Y008994D03*
X016742Y008994D03*
X017742Y008994D03*
X018742Y008994D03*
X019742Y008994D03*
X020742Y008994D03*
X021742Y008994D03*
X022742Y008994D03*
X023742Y008994D03*
D12*
X027360Y019577D03*
X012400Y019577D03*
D13*
X012006Y022727D02*
X012008Y022766D01*
X012014Y022805D01*
X012024Y022843D01*
X012037Y022880D01*
X012054Y022915D01*
X012074Y022949D01*
X012098Y022980D01*
X012125Y023009D01*
X012154Y023035D01*
X012186Y023058D01*
X012220Y023078D01*
X012256Y023094D01*
X012293Y023106D01*
X012332Y023115D01*
X012371Y023120D01*
X012410Y023121D01*
X012449Y023118D01*
X012488Y023111D01*
X012525Y023100D01*
X012562Y023086D01*
X012597Y023068D01*
X012630Y023047D01*
X012661Y023022D01*
X012689Y022995D01*
X012714Y022965D01*
X012736Y022932D01*
X012755Y022898D01*
X012770Y022862D01*
X012782Y022824D01*
X012790Y022786D01*
X012794Y022747D01*
X012794Y022707D01*
X012790Y022668D01*
X012782Y022630D01*
X012770Y022592D01*
X012755Y022556D01*
X012736Y022522D01*
X012714Y022489D01*
X012689Y022459D01*
X012661Y022432D01*
X012630Y022407D01*
X012597Y022386D01*
X012562Y022368D01*
X012525Y022354D01*
X012488Y022343D01*
X012449Y022336D01*
X012410Y022333D01*
X012371Y022334D01*
X012332Y022339D01*
X012293Y022348D01*
X012256Y022360D01*
X012220Y022376D01*
X012186Y022396D01*
X012154Y022419D01*
X012125Y022445D01*
X012098Y022474D01*
X012074Y022505D01*
X012054Y022539D01*
X012037Y022574D01*
X012024Y022611D01*
X012014Y022649D01*
X012008Y022688D01*
X012006Y022727D01*
D14*
X031368Y009065D03*
X031368Y008199D03*
X032786Y008199D03*
X032786Y009065D03*
D15*
X032805Y018443D03*
X033475Y018443D03*
X030975Y018443D03*
X030305Y018443D03*
X030305Y020443D03*
X030975Y020443D03*
X032805Y020443D03*
X033475Y020443D03*
X033475Y022443D03*
X032805Y022443D03*
X030975Y022443D03*
X030305Y022443D03*
X010475Y014943D03*
X009805Y014943D03*
X007975Y014943D03*
X007305Y014943D03*
X005475Y014943D03*
X004805Y014943D03*
X002975Y014943D03*
X002305Y014943D03*
D16*
X002140Y019609D03*
X002140Y020278D03*
X002140Y021609D03*
X002140Y022278D03*
X004640Y022278D03*
X004640Y021609D03*
X004640Y020278D03*
X004640Y019609D03*
X007140Y019609D03*
X007140Y020278D03*
X007140Y021609D03*
X007140Y022278D03*
X009640Y022278D03*
X009640Y021609D03*
X009640Y020278D03*
X009640Y019609D03*
D17*
X009640Y018443D01*
X010640Y018943D02*
X010640Y021443D01*
X010390Y021693D01*
X009640Y021693D01*
X009640Y021609D01*
X009640Y022193D02*
X009640Y022278D01*
X009640Y022193D02*
X010640Y022193D01*
X010890Y021943D01*
X010890Y019193D01*
X012140Y017943D01*
X012140Y014693D01*
X013890Y012943D01*
X013390Y012943D02*
X011890Y014443D01*
X011890Y015443D01*
X010140Y017193D01*
X010140Y019693D01*
X010140Y019943D01*
X009890Y020193D01*
X009640Y020193D01*
X009640Y020278D01*
X011140Y019443D02*
X014640Y015943D01*
X014640Y015193D01*
X014742Y014963D01*
X016640Y015193D02*
X016742Y014963D01*
X016640Y015193D02*
X016640Y016443D01*
X012640Y020443D01*
X012890Y020943D02*
X016640Y020943D01*
X017140Y020443D01*
X017140Y015943D01*
X017640Y015443D01*
X017640Y015193D01*
X017742Y014963D01*
X018640Y014193D02*
X021140Y014193D01*
X021640Y014693D01*
X021640Y014943D01*
X021742Y014963D01*
X020742Y014963D02*
X020640Y015193D01*
X020640Y017943D01*
X018890Y019693D01*
X018890Y022693D01*
X017890Y023693D01*
X005140Y023693D01*
X003640Y022193D01*
X002140Y022193D01*
X002140Y022278D01*
X002140Y021693D02*
X002140Y021609D01*
X002140Y021693D02*
X002890Y021693D01*
X003140Y021443D01*
X003140Y018943D01*
X002140Y018443D02*
X002140Y019609D01*
X002140Y020193D02*
X002140Y020278D01*
X002140Y020193D02*
X002640Y020193D01*
X004140Y020193D02*
X004140Y021443D01*
X004390Y021693D01*
X004640Y021693D01*
X004640Y021609D01*
X004640Y022193D02*
X004640Y022278D01*
X004640Y022193D02*
X006140Y022193D01*
X006890Y022943D01*
X011140Y022943D01*
X011390Y022693D01*
X011390Y022443D01*
X012890Y020943D01*
X011140Y019443D02*
X011140Y022443D01*
X010890Y022693D01*
X009390Y022693D01*
X008890Y022193D01*
X007140Y022193D01*
X007140Y022278D01*
X007140Y021693D02*
X007140Y021609D01*
X007140Y021693D02*
X007890Y021693D01*
X008140Y021443D01*
X008140Y019193D01*
X007640Y019193D02*
X011390Y015443D01*
X010475Y014943D02*
X010390Y014943D01*
X010390Y015943D01*
X009890Y014943D02*
X009805Y014943D01*
X009890Y014943D02*
X009890Y014693D01*
X011140Y013443D01*
X009140Y014943D02*
X007975Y014943D01*
X007390Y014943D02*
X007305Y014943D01*
X007390Y014943D02*
X007390Y015193D01*
X008890Y016693D01*
X007140Y018443D02*
X007140Y019609D01*
X007640Y019943D02*
X007640Y019193D01*
X007640Y019943D02*
X007390Y020193D01*
X007140Y020193D01*
X007140Y020278D01*
X005140Y020193D02*
X004640Y020193D01*
X004640Y020278D01*
X004640Y019609D02*
X004640Y018443D01*
X003640Y016693D02*
X002390Y015443D01*
X002390Y014943D01*
X002305Y014943D01*
X002975Y014943D02*
X003640Y014943D01*
X006140Y012443D01*
X017390Y012443D01*
X017390Y012943D01*
X018640Y014193D01*
X018390Y013443D02*
X017640Y012693D01*
X017640Y011443D01*
X015640Y009443D01*
X015640Y009193D01*
X015742Y008994D01*
X016640Y009193D02*
X016640Y009443D01*
X017890Y010693D01*
X017890Y011943D01*
X018390Y012443D01*
X022140Y012443D01*
X028140Y018443D01*
X028140Y022193D01*
X028890Y022943D01*
X033140Y022943D01*
X033390Y022693D01*
X033390Y022443D01*
X033475Y022443D01*
X032805Y022443D02*
X031640Y022443D01*
X031640Y021943D02*
X031140Y022443D01*
X030975Y022443D01*
X030305Y022443D02*
X029140Y022443D01*
X028390Y021693D01*
X028390Y018193D01*
X028890Y018193D02*
X028890Y019693D01*
X029640Y020443D01*
X030305Y020443D01*
X030975Y020443D02*
X031140Y020443D01*
X031640Y019943D01*
X031640Y018193D01*
X030390Y016943D01*
X029640Y016943D02*
X030890Y018193D01*
X030890Y018443D01*
X030975Y018443D01*
X030305Y018443D02*
X029640Y018443D01*
X028140Y016943D01*
X024890Y014443D02*
X024640Y014443D01*
X019890Y009693D01*
X018890Y009693D01*
X018640Y009443D01*
X018640Y009193D01*
X018742Y008994D01*
X018390Y008443D02*
X017890Y008943D01*
X017742Y008994D01*
X018390Y008443D02*
X024140Y008443D01*
X024390Y008693D01*
X031640Y008693D01*
X034140Y011193D01*
X034140Y020193D01*
X033890Y020443D01*
X033475Y020443D01*
X032805Y020443D02*
X032140Y020443D01*
X031890Y020193D02*
X031890Y016693D01*
X032640Y017943D02*
X032640Y018443D01*
X032805Y018443D01*
X033390Y018443D02*
X033475Y018443D01*
X033390Y018443D02*
X033390Y017193D01*
X029140Y012943D01*
X026390Y012943D01*
X024890Y014443D01*
X024890Y013943D02*
X026140Y012693D01*
X027890Y012693D01*
X031390Y009193D01*
X031368Y009065D01*
X019640Y011943D02*
X017390Y009693D01*
X016640Y009193D02*
X016742Y008994D01*
X019742Y014963D02*
X019640Y015193D01*
X019640Y015443D01*
X018640Y016443D01*
X018640Y019943D01*
X017640Y020943D01*
X006390Y016693D02*
X004890Y015193D01*
X004890Y014943D01*
X004805Y014943D01*
X005475Y014943D02*
X006640Y014943D01*
X031640Y020443D02*
X031890Y020193D01*
X031640Y020443D02*
X031640Y021943D01*
D18*
X031640Y022443D03*
X032140Y020443D03*
X032640Y017943D03*
X031890Y016693D03*
X030390Y016943D03*
X029640Y016943D03*
X028890Y018193D03*
X028390Y018193D03*
X028140Y016943D03*
X024890Y013943D03*
X019640Y011943D03*
X018390Y013443D03*
X013890Y012943D03*
X013390Y012943D03*
X011140Y013443D03*
X009140Y014943D03*
X010390Y015943D03*
X011390Y015443D03*
X008890Y016693D03*
X009640Y018443D03*
X010640Y018943D03*
X012640Y020443D03*
X008140Y019193D03*
X007140Y018443D03*
X006390Y016693D03*
X006640Y014943D03*
X003640Y016693D03*
X004640Y018443D03*
X003140Y018943D03*
X002140Y018443D03*
X002640Y020193D03*
X004140Y020193D03*
X005140Y020193D03*
X017640Y020943D03*
X017390Y009693D03*
D19*
X020140Y024943D03*
X037140Y024943D03*
X002640Y024943D03*
M02*
